<svg width="88" height="66" viewBox="0 0 88 66" fill="none" xmlns="http://www.w3.org/2000/svg">
<path d="M86.381 29.8521L27.016 0.248805C25.847 -0.3335 24.4271 0.141028 23.8442 1.31L11.1792 26.7071C10.8993 27.2685 10.8539 27.918 11.0529 28.5127C11.2519 29.1077 11.6788 29.599 12.2404 29.8789L29.9652 38.7174L28.3927 41.8711C27.8099 43.04 28.2849 44.4599 29.4539 45.0429L30.0126 45.3217L26.9586 50.7605H8.951C7.2763 47.5215 3.89811 45.3058 0 45.3058V65.4515C3.808 65.4515 7.12162 63.3378 8.83384 60.2201H29.7274C31.4375 60.2201 33.0142 59.2974 33.8516 57.8064L38.4888 49.5486L39.295 49.9505C40.4638 50.5332 41.8841 50.058 42.467 48.8895L44.0396 45.7358L57.2827 52.3401C58.0466 52.7211 58.9564 52.661 59.6632 52.1824L63.3183 49.71L69.8443 52.9643C70.1755 53.1297 70.5368 53.213 70.8996 53.213C71.1525 53.213 71.4058 53.172 71.6499 53.0904C72.2449 52.8919 72.7362 52.4645 73.0161 51.9033L79.6974 38.5046L86.626 33.9442C87.3326 33.479 87.7369 32.6718 87.6863 31.8274C87.6357 30.9827 87.1378 30.2298 86.381 29.8521Z" fill="url(#paint0_linear_2405_5537)"/>
<defs>
<linearGradient id="paint0_linear_2405_5537" x1="43.8453" y1="0" x2="43.8453" y2="65.4515" gradientUnits="userSpaceOnUse">
<stop stop-color="#415E94"/>
<stop offset="1" stop-color="#415E94" stop-opacity="0"/>
</linearGradient>
</defs>
</svg>
