<svg width="96" height="96" viewBox="0 0 96 96" fill="none" xmlns="http://www.w3.org/2000/svg">
<path d="M84.9556 48.54L87.7591 50.24L88.9485 52.365L87.7591 57.975L79.5186 52.705L84.9556 48.54Z" fill="url(#paint0_linear_2749_3458)"/>
<path d="M75.0162 58.4004C75.5259 57.2954 76.1206 56.2754 76.8852 55.4254C77.5648 54.6604 78.2444 54.0654 79.009 53.6405C80.3683 52.8755 81.6426 52.7905 82.4922 53.3005L85.2107 54.9154C84.2762 54.4054 83.0868 54.4904 81.7276 55.2554C80.963 55.6804 80.1984 56.3604 79.6037 57.0404C78.8391 57.8904 78.1595 58.9954 77.7347 60.0154C77.225 61.2053 76.8852 62.4803 76.8852 63.6703C76.8852 65.2003 77.3949 66.3053 78.3294 66.8153L75.6109 65.2003C74.7613 64.6903 74.1666 63.5853 74.1666 62.0553C74.1666 60.9504 74.5065 59.5904 75.0162 58.4004Z" fill="#444340"/>
<path d="M81.8121 55.1699C84.5307 53.6399 86.7395 54.8299 86.7395 57.9749C86.7395 61.1199 84.5307 64.945 81.8121 66.475C79.0935 68.005 76.8847 66.815 76.8847 63.6699C76.8847 60.5249 79.0935 56.6999 81.8121 55.1699Z" fill="#2D2C2B"/>
<path opacity="0.5" d="M81.8127 56.7853C83.7667 55.6803 85.3809 56.5303 85.3809 58.8253C85.3809 61.0354 83.8517 63.8404 81.8977 64.9454C79.9437 66.0504 78.3295 65.2004 78.3295 62.9054C78.2446 60.6104 79.8587 57.8903 81.8127 56.7853Z" fill="url(#paint1_linear_2749_3458)"/>
<path d="M82.0664 59.2515V59.4215C82.0664 60.1864 81.5567 61.0364 80.9621 61.4614L80.7922 61.5464C81.5567 61.1214 82.0664 60.1014 82.0664 59.2515Z" fill="#F4FEFF"/>
<path d="M80.9626 58.4851L81.1325 58.7401C81.6422 58.4851 82.0669 58.8251 82.1519 59.5051V59.3351C82.0669 58.5701 81.5572 58.2301 80.9626 58.4851Z" fill="#CAE3E5"/>
<path d="M80.793 61.6308L80.9629 61.5458C80.3682 61.8858 79.8584 61.6308 79.7734 60.8658C79.7734 60.5258 79.8584 60.1858 80.0283 59.8458L79.7734 59.6758C79.6035 60.0158 79.5186 60.4408 79.5186 60.7808C79.5186 61.7158 80.0283 62.0558 80.793 61.6308Z" fill="url(#paint2_linear_2749_3458)"/>
<path d="M80.709 58.5703C80.794 58.4854 80.8789 58.4854 80.9639 58.4854L81.1338 58.7404C81.0488 58.7404 80.9639 58.8254 80.9639 58.8254C80.624 59.0803 80.2842 59.4203 80.1143 59.8453L79.8594 59.6753C79.9444 59.2503 80.3692 58.8253 80.709 58.5703Z" fill="#F4FEFF"/>
<path d="M80.877 58.8252C80.2823 59.2502 79.7726 60.1002 79.7726 60.8652C79.7726 61.6302 80.2823 61.8852 80.962 61.4602C81.5567 61.0352 82.0664 60.1852 82.0664 59.4202C82.0664 58.7402 81.5567 58.4852 80.877 58.8252Z" fill="url(#paint3_linear_2749_3458)"/>
<path d="M83.0892 56.6123H82.3246C82.3246 56.6123 82.1547 56.6123 82.2396 56.6973C82.9193 56.8673 83.3441 57.4623 83.3441 58.4823C83.3441 60.1823 82.2396 62.2223 80.7953 63.0723C79.9458 63.5823 79.0962 63.5823 78.6714 63.0723C78.5865 62.9873 78.7564 63.3273 78.7564 63.3273L79.0112 63.9223C79.521 64.8572 80.6254 65.0272 81.8998 64.2623C83.5989 63.2423 84.9583 60.7773 84.9583 58.8223C84.8733 57.3773 84.1936 56.6123 83.0892 56.6123Z" fill="url(#paint4_linear_2749_3458)"/>
<path d="M81.7273 56.8709C79.9432 57.9759 78.4989 60.6109 78.4989 62.6508C78.5839 64.7758 80.0281 65.5408 81.8972 64.4358C83.6812 63.3308 85.1255 60.6959 85.1255 58.6559C85.0405 56.5309 83.5963 55.7659 81.7273 56.8709ZM81.7273 57.0409C83.4264 56.0209 84.8706 56.7859 84.9556 58.7409C85.0405 60.6959 83.6812 63.1608 81.8972 64.1808C80.198 65.2008 78.7538 64.4358 78.6688 62.4808C78.6688 60.5259 80.0281 58.1459 81.7273 57.0409Z" fill="#A8BDC0"/>
<path d="M78.669 62.5657C78.584 60.6107 79.9433 58.1457 81.7274 57.1256C81.9823 56.9556 82.2371 56.8706 82.407 56.7856C83.0017 57.0406 83.3416 57.6357 83.3416 58.4857C83.3416 60.1857 82.2371 62.2257 80.7929 63.0757C79.9433 63.5857 79.2637 63.5857 78.7539 63.1607C78.7539 62.9907 78.669 62.8207 78.669 62.5657ZM80.7929 61.6307C81.5575 61.1207 82.0672 60.1007 82.0672 59.2507C82.0672 58.4007 81.4725 58.0607 80.7079 58.5707C79.9433 58.9957 79.4336 60.0157 79.4336 60.8657C79.5185 61.7157 80.1132 62.0557 80.7929 61.6307Z" fill="url(#paint5_linear_2749_3458)"/>
<path d="M53.7769 44.715L25.6566 28.395V61.2049L53.7769 77.6098V44.715Z" fill="#CDD2D5"/>
<path d="M96 20.405L67.8798 4L25.6571 28.395L53.7772 44.7149L96 20.405Z" fill="#EBF0F3"/>
<path d="M87.7591 57.7193C87.7591 53.8943 84.8706 52.3643 81.3875 54.4043C77.9043 56.4443 75.0158 61.2043 75.0158 65.1144C75.0158 65.1994 75.0158 65.2843 75.0158 65.3693L53.8619 77.6094V44.7993L95.9998 20.4043V53.2143L87.7591 57.9743C87.7591 57.8893 87.7591 57.8043 87.7591 57.7193Z" fill="#B4BCC1"/>
<path d="M35.4261 72.9326L38.2296 74.5477L39.334 76.6727L38.1446 82.3679L29.989 77.0977L35.4261 72.9326Z" fill="url(#paint6_linear_2749_3458)"/>
<path d="M25.6588 82.9644C26.1685 81.8594 26.7632 80.8394 27.5278 79.9894C28.2075 79.2244 28.8871 78.6294 29.6517 78.2044C31.011 77.4394 32.2854 77.3544 33.1349 77.8644L35.8535 79.4794C34.919 78.9694 33.7296 79.0544 32.3703 79.8194C31.6057 80.2444 30.8411 80.9244 30.2464 81.6044C29.4818 82.4544 28.8022 83.5594 28.3774 84.5794C27.8677 85.7694 27.5278 87.0444 27.5278 88.2344C27.5278 89.7644 28.0376 90.8694 28.9721 91.3794L26.2535 89.7644C25.4039 89.2544 24.8092 88.1494 24.8092 86.6194C24.8092 85.4294 25.1491 84.1544 25.6588 82.9644Z" fill="#444340"/>
<path d="M32.455 79.7339C35.1735 78.2039 37.3823 79.3939 37.3823 82.5389C37.3823 85.6839 35.1735 89.5089 32.455 91.0389C29.7365 92.5689 27.5277 91.3789 27.5277 88.2339C27.5277 85.0889 29.7365 81.2639 32.455 79.7339Z" fill="#2D2C2B"/>
<path opacity="0.5" d="M32.4553 81.3493C34.4093 80.2443 36.0234 81.0943 36.0234 83.3892C36.0234 85.5992 34.4942 88.4041 32.5403 89.5091C30.5863 90.6141 28.9722 89.7641 28.9722 87.4691C28.9722 85.1742 30.5014 82.4542 32.4553 81.3493Z" fill="url(#paint7_linear_2749_3458)"/>
<path d="M32.2904 81.5179C30.5064 82.6229 29.1471 85.1729 29.1471 87.2979C29.2321 89.3379 30.6763 90.1879 32.4603 89.0829C34.2443 87.9779 35.6035 85.4279 35.6035 83.3029C35.6035 81.1779 34.0744 80.4129 32.2904 81.5179Z" fill="url(#paint8_linear_2749_3458)"/>
<path d="M35.6836 83.3042V83.4742C35.6836 85.4292 34.4092 87.8092 32.71 88.9142L32.5401 88.9992C34.3243 87.8942 35.6836 85.3442 35.6836 83.3042Z" fill="#CAE3E5"/>
<path d="M32.4552 81.7699C30.7561 82.7899 29.3968 85.2549 29.4818 87.21C29.5667 89.165 31.011 89.93 32.7101 88.91C34.4092 87.89 35.7684 85.4249 35.6835 83.4699C35.5985 81.4299 34.1543 80.7499 32.4552 81.7699ZM32.4552 82.1099C33.9844 81.1749 35.2587 81.8549 35.3437 83.6399C35.4286 85.4249 34.2392 87.635 32.7101 88.57C31.1809 89.505 29.9066 88.825 29.8216 87.0399C29.7366 85.2549 30.926 83.0449 32.4552 82.1099Z" fill="url(#paint9_linear_2749_3458)"/>
<path d="M35.3445 83.6436V83.9836C35.3445 85.5135 34.325 87.4685 32.9658 88.3185L32.626 88.4885C34.2401 87.6385 35.3445 85.4285 35.3445 83.6436Z" fill="#CAE3E5"/>
<path d="M32.7957 82.6239C31.4364 83.4739 30.417 85.4289 30.417 87.0439C30.5019 88.6589 31.6063 89.2539 32.9656 88.4039C34.3248 87.5539 35.3442 85.5989 35.3442 83.9839C35.3442 82.3689 34.1549 81.7739 32.7957 82.6239ZM32.8806 83.9839C33.6452 83.5589 34.2399 83.8139 34.2399 84.7489C34.2399 85.5989 33.7301 86.7039 32.9656 87.1289C32.201 87.5539 31.6063 87.2989 31.6063 86.3639C31.5214 85.4289 32.116 84.4089 32.8806 83.9839Z" fill="url(#paint10_linear_2749_3458)"/>
<path d="M34.2393 84.5791C34.2393 84.6641 34.2393 84.6641 34.2393 84.7491C34.2393 85.5991 33.7296 86.6192 32.9651 87.0442L32.8801 87.1292H32.7952L32.8801 87.0442C33.6446 86.6192 34.1543 85.5141 34.1543 84.6641C34.2393 84.6641 34.2393 84.5791 34.2393 84.5791Z" fill="#CAE3E5"/>
<path d="M33.0495 83.8142C33.7292 83.6442 34.1541 83.8991 34.239 84.579V84.494C34.1541 83.8991 33.6443 83.5592 33.0495 83.8142Z" fill="#CAE3E5"/>
<path d="M32.7949 87.1283C32.2002 87.4683 31.6905 87.1283 31.6055 86.3633C31.6055 86.0233 31.6905 85.5983 31.8604 85.1733H31.7754C31.6055 85.5983 31.5205 86.0233 31.5205 86.3633C31.6055 87.1283 32.1153 87.4683 32.7949 87.1283Z" fill="#CAE3E5"/>
<path d="M32.8799 83.9835C32.2003 84.4085 31.6057 85.4285 31.6057 86.2785C31.6057 87.1285 32.2003 87.3835 32.9648 86.9585C33.6444 86.5335 34.239 85.5135 34.239 84.6635C34.239 83.8985 33.6444 83.5585 32.8799 83.9835Z" fill="url(#paint11_linear_2749_3458)"/>
<path d="M32.9655 81.8589L33.2203 82.4539C34.4097 81.9439 35.2593 82.6239 35.3442 83.984C35.3442 83.984 35.3442 83.984 35.3442 84.069V83.729C35.3442 83.729 35.3442 83.729 35.3442 83.644C35.2593 82.0289 34.2398 81.3489 32.9655 81.8589Z" fill="#CAE3E5"/>
<path d="M32.8824 81.1787L33.0523 81.4337C34.4965 80.8387 35.6008 81.6037 35.6858 83.3887V83.4737V83.3037V83.2187C35.6008 81.4337 34.4115 80.5837 32.8824 81.1787Z" fill="#CAE3E5"/>
<path d="M32.7102 88.5736L33.05 88.4036C31.6907 89.2536 30.5863 88.6586 30.5014 87.0436C30.5014 86.3636 30.6713 85.5986 31.0111 84.9186L30.4164 84.6636C30.0766 85.4286 29.8217 86.2786 29.9067 87.0436C29.9067 88.8286 31.181 89.5086 32.7102 88.5736Z" fill="url(#paint12_linear_2749_3458)"/>
<path d="M32.541 88.9992L32.7109 88.9142C31.0118 89.9343 29.5676 89.2543 29.4827 87.2142C29.4827 86.3642 29.6526 85.4292 30.0774 84.5791L29.8225 84.4941C29.3977 85.4292 29.1429 86.3642 29.1429 87.2992C29.2278 89.3393 30.757 90.1043 32.541 88.9992Z" fill="url(#paint13_linear_2749_3458)"/>
<path d="M32.8801 83.9844C32.9651 83.9844 33.05 83.8994 33.05 83.8994C33.05 83.9844 32.9651 83.9844 32.8801 83.9844C32.5404 84.3244 32.2006 84.7494 31.9457 85.1744H31.8608C32.1156 84.6644 32.4554 84.2394 32.8801 83.9844Z" fill="#F4FEFF"/>
<path d="M32.4561 82.1105C32.626 82.0255 32.7959 81.9405 32.9659 81.8555L33.2207 82.4505C33.0508 82.5355 32.9658 82.6205 32.7959 82.7055C32.0314 83.2155 31.3518 84.0656 30.927 84.9156L30.3323 84.6606C30.8421 83.5556 31.6066 82.6205 32.4561 82.1105Z" fill="#F4FEFF"/>
<path d="M32.291 81.5192C32.461 81.4342 32.7158 81.2642 32.8857 81.2642L33.0557 81.5192C32.8857 81.6042 32.7158 81.6892 32.5459 81.7742C31.6114 82.3692 30.7618 83.3892 30.1671 84.5792L29.9122 84.4942C30.422 83.2192 31.2716 82.1142 32.291 81.5192Z" fill="#F4FEFF"/>
<path d="M34.6643 83.8138C34.6643 83.8988 34.7493 83.8138 34.8342 83.8138C34.9192 83.7288 34.9192 83.6438 34.9192 83.5588C34.9192 83.4738 34.8342 83.5588 34.7493 83.5588C34.6643 83.6438 34.6643 83.7288 34.6643 83.8138ZM33.6448 86.7889C33.7297 86.7039 33.8147 86.7039 33.8147 86.7889C33.8147 86.8739 33.8147 86.9589 33.7297 87.0439C33.6448 87.1289 33.5598 87.1289 33.5598 87.0439C33.5598 87.0439 33.5598 86.8739 33.6448 86.7889ZM31.011 86.0239C30.926 86.0239 30.926 85.9389 30.926 85.8539C30.926 85.7689 31.011 85.6839 31.096 85.6839C31.1809 85.6839 31.1809 85.7689 31.1809 85.8539C31.1809 85.8539 31.096 86.0239 31.011 86.0239ZM34.8342 85.0039C34.9192 85.0039 34.9192 85.0889 34.9192 85.1739C34.9192 85.2589 34.8342 85.3439 34.7493 85.3439C34.6643 85.3439 34.6643 85.2589 34.6643 85.1739C34.6643 85.0889 34.7493 85.0039 34.8342 85.0039ZM32.1155 83.9838C32.1155 83.8988 32.2854 83.8988 32.2854 83.9838C32.2854 84.0688 32.2854 84.1539 32.2004 84.2389C32.1155 84.3239 32.0305 84.3239 32.0305 84.2389C31.9456 84.1539 32.0305 84.0688 32.1155 83.9838ZM31.011 87.2989C31.096 87.2139 31.1809 87.2139 31.1809 87.2989C31.1809 87.3839 31.1809 87.4689 31.096 87.5539C31.011 87.6389 30.926 87.6389 30.926 87.5539C30.926 87.4689 30.926 87.3839 31.011 87.2989ZM32.2004 87.6389C32.2854 87.6389 32.2854 87.7239 32.2854 87.8089C32.2854 87.8939 32.2004 87.9789 32.1155 87.9789C32.0305 87.9789 32.0305 87.8939 32.0305 87.8089C32.0305 87.8089 32.1155 87.6389 32.2004 87.6389ZM33.7297 83.0488C33.8147 83.0488 33.8147 83.1338 33.8147 83.2188C33.8147 83.3038 33.7297 83.3888 33.6448 83.3888C33.5598 83.3888 33.5598 83.3038 33.5598 83.2188C33.5598 83.1338 33.6448 83.0488 33.7297 83.0488Z" fill="#50504F"/>
<path d="M9.26022 57.6336L17.4159 44.7986L28.4601 37.7437C33.3875 42.1637 46.7255 49.0486 47.745 49.6436C47.83 49.6436 47.83 49.7286 47.83 49.7286C48.5946 50.9186 49.0193 52.3636 49.1043 53.7236L49.699 62.9886C49.699 64.9436 48.5096 66.7286 46.7255 67.4936C41.4583 69.7036 31.1787 74.5486 30.669 74.4636C19.3699 73.1886 2.46379 64.3486 2.46379 64.3486L9.26022 57.6336ZM27.8654 49.4736C28.0354 44.1186 27.2708 39.8687 27.2708 39.8687L19.6248 44.2887C18.2655 45.1387 17.6708 46.6686 17.0761 48.1986C14.9522 52.9586 12.7434 57.5486 12.7434 57.5486L27.8654 49.4736Z" fill="#B4BCC1"/>
<path d="M36.6159 55.2534L53.7769 65.1134V68.1734L36.6159 58.3134V55.2534Z" fill="#EF4837"/>
<path d="M31.4347 70.2134L34.2382 53.3834L49.4451 49.9834C49.8699 53.4684 50.1248 60.5234 50.1248 60.5234V75.4834L38.1461 82.3684C38.316 81.6034 38.401 80.9234 38.401 80.2434C38.401 76.4184 35.5125 74.8884 32.0294 76.9284C28.886 78.7134 26.2524 82.7084 25.7427 86.2784L23.4489 87.5534V76.6734L31.4347 70.2134Z" fill="#B4BCC1"/>
<path d="M50.2087 66.1328L23.4478 81.5179V78.4579L50.2087 62.9878V66.1328Z" fill="#B72323"/>
<path d="M30.3285 69.5337L36.7851 56.4437C20.9834 50.4937 17.4153 45.7337 17.4153 45.7337L10.1942 57.7187C10.3641 57.8887 10.449 58.0587 10.6189 58.3137L9.08975 57.4637L15.8861 46.2437C16.5658 44.9687 17.5852 43.9487 18.8596 43.2687L28.3745 37.7437L49.4434 49.9837L39.9284 55.4237C38.739 56.1037 37.7196 57.1237 37.0399 58.3987L31.4329 70.2137L30.3285 69.5337Z" fill="url(#paint14_linear_2749_3458)"/>
<path d="M9.26082 57.124L10.3652 57.804C13.7634 62.564 23.2784 67.579 30.3297 69.534L31.4341 70.214C31.4341 70.214 23.4483 77.8639 23.4483 79.8189V87.5539L1.27505 74.549V66.814C1.19009 64.774 9.26082 57.124 9.26082 57.124Z" fill="url(#paint15_linear_2749_3458)"/>
<path d="M23.4476 79.8194V80.8394L1.18943 68.0043V66.7293C1.18943 66.3043 1.52925 65.7093 2.03898 64.9443C1.69916 67.0693 20.729 78.3744 24.3821 77.8644C23.8724 78.7144 23.4476 79.3944 23.4476 79.8194Z" fill="url(#paint16_linear_2749_3458)"/>
<path d="M47.2361 65.2837L47.8308 66.8987L47.6609 66.9837L47.491 66.5587L46.8113 66.9837L46.6414 67.5787L46.4715 67.6637L47.0662 65.3687L47.2361 65.2837ZM47.406 66.5587L47.0662 65.6237L46.7264 66.8987L47.406 66.5587ZM44.5176 66.8987L44.2627 67.0687V69.0237L44.4326 68.9387V67.7487V67.3237L45.0273 68.5987L45.1972 68.5137L45.7919 66.5587V66.9837V68.1737L45.8768 68.0037V66.0487L45.622 66.2187L45.0273 68.1737L44.5176 66.8987ZM42.9034 68.7687C42.7335 68.7687 42.6485 68.7687 42.6485 68.5137V68.4287C42.6485 68.0887 42.9034 67.7487 43.2432 67.5787L43.753 67.3237V69.2787L43.2432 69.6187C42.9034 69.7887 42.6485 69.7887 42.6485 69.4487V69.4487C42.5636 69.1937 42.6485 68.9387 42.9034 68.7687ZM43.4981 67.6637L43.1583 67.8337C42.9034 67.9187 42.7335 68.1737 42.7335 68.4287C42.7335 68.6837 42.9034 68.6837 43.1583 68.5137L43.4981 68.3437V67.6637ZM42.7335 69.3637C42.7335 69.6187 42.9034 69.6187 43.1583 69.4487L43.4981 69.2787V68.5137L43.1583 68.6837C42.9034 68.8537 42.7335 69.1087 42.7335 69.3637ZM40.9494 69.0237L40.7795 69.1087V70.4687C40.7795 70.8937 40.9494 70.9787 41.3742 70.7237C41.799 70.4687 41.9689 70.2137 41.9689 69.7037V68.3437L41.799 68.4287V69.7887C41.799 70.1287 41.6291 70.3837 41.3742 70.5537C41.0344 70.7237 40.9494 70.7237 40.9494 70.2987V69.0237ZM39.93 71.3187L39.0804 71.8287V71.9987L40.0999 71.4037V69.4487L39.93 69.5337V71.3187ZM38.2309 70.5537L38.8255 72.1687L38.6556 72.2537L38.4857 71.8287L37.8061 72.2537L37.6362 72.8487L37.4663 72.9337L38.061 70.6387L38.2309 70.5537ZM38.4008 71.7437L38.061 70.8087L37.7211 72.0837L38.4008 71.7437ZM35.7672 71.9137L35.5973 71.9987V73.9538L35.7672 73.8688L36.7017 71.7437V72.1687V73.3588L36.8716 73.2738V71.3187L36.7017 71.4037L35.7672 73.5288V73.1038V71.9137ZM33.8132 73.6988H33.9831C33.9831 73.2738 34.0681 73.0187 34.4079 72.8487C34.7477 72.6787 34.9176 72.8487 34.9176 73.3588V73.4437C34.9176 73.9538 34.7477 74.2938 34.4079 74.4638C34.153 74.6338 33.9831 74.5488 33.9831 74.2088L33.8132 74.2938C33.8132 74.7188 33.9831 74.8038 34.4079 74.5488C34.8327 74.2938 35.0875 73.8688 35.0875 73.1888V73.1038C35.0875 72.4237 34.8327 72.2537 34.4079 72.5087C33.9831 72.9337 33.8132 73.2738 33.8132 73.6988ZM33.0486 73.6988V74.3788L32.284 74.8038V74.9738L33.0486 74.5488V75.3138L32.1141 75.8238V75.9938L33.2185 75.3988V73.4437L32.1141 74.0388V74.2088L33.0486 73.6988Z" fill="#B4BCC1"/>
<path opacity="0.2" d="M34.1523 68.5134L33.7275 69.6184L35.0868 75.9934C35.1717 75.9934 35.2567 75.9934 35.3417 75.9934L33.9824 69.6184L34.4071 68.5984L45.0266 58.5684L48.5947 61.0334V75.1434L38.3151 80.7534C38.3151 80.8384 38.3151 80.9234 38.3151 81.0084L48.8496 75.2284V60.9484H48.7647L45.0266 58.3984L44.9416 58.4834L34.1523 68.5134Z" fill="#1C1C1C"/>
<path d="M23.1929 87.1278C23.4477 87.2128 25.9114 85.9378 25.9114 85.9378L26.5061 86.2778V90.6128C26.5061 90.6128 24.9769 91.5478 23.9575 91.9728C22.6831 92.4828 22.1734 92.2278 20.8991 91.5478C16.8212 89.2528 3.14346 81.2629 0.594803 79.6479C0.254982 79.4779 0.0850736 79.1379 0.0850736 78.7129C0.0850736 78.2029 0.000119799 75.5679 0.000119799 75.1429C0.000119799 74.8029 0.17003 74.4629 0.424895 74.2079L1.3594 73.3579V74.4629C2.37886 75.0579 21.9185 86.6178 23.1929 87.1278Z" fill="#303435"/>
<path opacity="0.8" d="M17.5013 45.7349C17.5013 45.7349 21.0695 50.4949 36.8711 56.4448L30.4145 69.5348C23.2783 67.5798 13.6784 62.4798 10.2802 57.7198L17.5013 45.7349Z" fill="#334547"/>
<path d="M40.6925 56.4449L48.3384 52.0249C48.3384 52.0249 48.8482 56.6999 48.9331 60.9499L33.7262 69.6199C33.7262 69.6199 35.4253 64.6049 37.5492 59.8449C38.2288 58.4849 39.3332 57.2949 40.6925 56.4449Z" fill="#303E41"/>
<path d="M23.4472 84.5793C23.6171 84.5793 24.2967 84.3243 24.3817 83.9843C24.5516 83.3043 25.1462 80.1593 25.1462 80.0743C25.0613 79.8193 23.4472 81.5193 23.4472 81.5193C23.4472 81.5193 22.6826 81.0943 22.5976 81.0943L17.7552 78.2893L16.4809 80.6693L22.5127 84.1543C22.6826 84.2393 23.2772 84.5793 23.4472 84.5793ZM1.27408 68.5143C1.27408 68.4293 1.35903 68.3443 1.44399 68.2593C1.44399 68.2593 1.44399 68.7693 1.6139 68.8543C1.69885 68.9393 2.20858 69.1943 2.20858 69.1943L6.54125 71.6593L7.22088 75.2293L2.20858 72.3393L1.6139 71.9993C1.44399 71.9143 1.35903 71.8293 1.35903 71.6593V71.5743L1.27408 68.5143Z" fill="#858E93"/>
<path d="M2.03955 68.4321V71.4921L1.35978 71.0671C1.18984 70.9821 1.10487 70.8971 1.10487 70.7271C0.934932 70.3871 0.849957 70.4721 0.934928 68.6871C0.934928 68.3471 0.934929 67.8371 1.27481 67.4121C1.27481 67.4121 1.27481 67.9221 1.44475 68.0071C1.52972 68.0921 2.03955 68.4321 2.03955 68.4321Z" fill="#FF7F3B"/>
<path d="M22.5989 83.3918L16.567 79.9069L17.8413 77.5269L22.5989 80.3319V83.3918Z" fill="url(#paint17_linear_2749_3458)"/>
<path d="M6.28812 70.8966L6.96777 74.4666L2.04025 71.4916V68.4316L6.28812 70.8966Z" fill="url(#paint18_linear_2749_3458)"/>
<path d="M22.5991 80.3308L23.4486 80.7558C23.4486 80.7558 24.9778 79.8208 25.1477 80.0758C25.1477 80.1608 24.7229 82.4558 24.638 83.0508C24.553 83.3058 23.7035 83.7308 23.5336 83.7308C23.3637 83.7308 22.684 83.3908 22.684 83.3058L22.5991 80.3308Z" fill="url(#paint19_linear_2749_3458)"/>
<path d="M18.0105 77.6115L6.28661 70.8965L7.56095 77.5265L16.8211 82.8816L18.0105 77.6115Z" fill="#858E93"/>
<path d="M7.81555 77.268L16.8209 82.538L18.0103 77.608L6.71113 71.063L7.81555 77.268Z" fill="#303435"/>
<path opacity="0.6" d="M16.9915 81.947V81.777L7.64646 76.4221L7.73142 76.6771L16.9915 81.947ZM17.3313 80.587L17.2464 80.757L7.39159 75.0621L7.30664 74.8071L17.3313 80.587ZM17.1614 81.182L17.0765 81.352L7.56151 75.8271L7.47655 75.5721L17.1614 81.182ZM17.5012 79.907L17.4163 80.077L7.30664 74.2121L7.22169 73.9571L17.5012 79.907ZM17.926 78.122L17.8411 78.292L6.88186 71.9171L6.79691 71.6621L17.926 78.122ZM17.5862 79.312L17.5012 79.482L7.05178 73.4471L6.96682 73.1921L17.5862 79.312ZM17.7561 78.717L17.6712 78.887L6.96682 72.6821L6.88186 72.4271L17.7561 78.717Z" fill="#454B4C"/>
<path opacity="0.6" d="M23.1926 87.1299C23.4475 87.2149 25.9112 85.9399 25.9112 85.9399L26.5059 86.2799C26.5059 86.2799 25.8262 86.9599 23.5324 87.9799C23.1076 88.1499 22.5979 88.1499 22.1731 87.8949L-0.000174552 75.1449C-0.000174552 74.8049 0.169736 74.4649 0.424602 74.2099L1.35911 73.3599V74.4649C2.37857 75.0599 21.9183 86.6199 23.1926 87.1299Z" fill="#303435"/>
<path opacity="0.5" d="M5.60774 81.8596L16.6519 88.2346V85.5996L5.60774 79.2246V81.8596Z" fill="#303435"/>
<path opacity="0.8" d="M6.03252 79.4796V81.5196L16.6519 87.6396V88.2346L5.60774 81.8596V79.2246L6.03252 79.4796Z" fill="#303435"/>
<path opacity="0.6" d="M3.05842 79.8198C3.39823 79.8198 3.73804 79.5648 3.73804 79.1398C3.73804 78.7148 3.39823 78.1198 2.97347 77.8648C2.80357 77.7798 2.63366 77.6948 2.46376 77.6948C2.12395 77.6948 1.78414 77.9498 1.78414 78.3748C1.78414 78.7998 2.12395 79.3948 2.54871 79.6498C2.71861 79.8198 2.88852 79.8198 3.05842 79.8198Z" fill="#303435"/>
<path d="M2.12745 78.2835C2.12745 78.7085 2.46729 79.2184 2.89209 79.4734C3.3169 79.7284 3.65674 79.5584 3.65674 79.1334C3.65674 78.7085 3.3169 78.1985 2.89209 77.9435C2.46729 77.6886 2.12745 77.8585 2.12745 78.2835Z" fill="url(#paint20_linear_2749_3458)"/>
<path opacity="0.6" d="M19.709 89.5947C20.0488 89.5947 20.3887 89.3397 20.3887 88.9147C20.3887 88.4897 20.0488 87.8947 19.6241 87.6397C19.4542 87.5547 19.2842 87.4697 19.1143 87.4697C18.7745 87.4697 18.4347 87.7247 18.4347 88.1497C18.4347 88.5747 18.7745 89.1697 19.1993 89.4247C19.4542 89.5097 19.5391 89.5947 19.709 89.5947Z" fill="#303435"/>
<path d="M18.8602 87.9784C18.8602 88.4034 19.2 88.9134 19.6248 89.1684C20.0496 89.4234 20.3894 89.2534 20.3894 88.8284C20.3894 88.4034 20.0496 87.8934 19.6248 87.6384C19.2 87.3834 18.8602 87.5534 18.8602 87.9784Z" fill="url(#paint21_linear_2749_3458)"/>
<path d="M50.6348 40.8901L50.7197 41.5701L30.5003 29.8402V29.1602L50.6348 40.8901Z" fill="#CDD2D5"/>
<path d="M53.7781 39.1055V39.7855L50.7197 41.5705L50.6348 40.8905L53.7781 39.1055Z" fill="#B4BCC1"/>
<path d="M30.4997 29.1605L50.6342 40.8904L53.7776 39.1054L33.5581 27.3755L30.4997 29.1605Z" fill="#B4BCC1"/>
<path d="M31.9475 27.2913C32.882 26.7813 33.6466 26.5263 33.8165 26.6113L42.2271 31.4563C41.9722 31.2863 41.2076 31.5413 40.358 32.1363C39.5934 32.5613 38.9988 33.0713 38.6589 33.4113L30.2484 28.5663C30.5882 28.1413 31.2679 27.7163 31.9475 27.2913Z" fill="#0049FF"/>
<path d="M38.6536 33.4114L30.2431 28.5664C30.1581 28.6514 30.0732 28.8214 29.9882 28.9064L38.4837 33.7514C38.4837 33.6664 38.5686 33.5814 38.6536 33.4114Z" fill="#85DFFF"/>
<path d="M38.4839 33.7518L30.0733 28.9067C30.0733 28.9917 30.0733 28.9917 30.0733 29.0767C30.0733 29.1617 30.0733 29.1617 30.1582 29.1617L38.5688 34.0068C38.4839 34.0068 38.4839 33.9218 38.4839 33.9218C38.3989 33.8368 38.3989 33.8368 38.4839 33.7518Z" fill="#4A00FF"/>
<path d="M40.3541 32.1364C39.2496 32.7314 38.4 33.5814 38.4 33.9214C38.4 34.2614 39.2496 34.0064 40.3541 33.4114C41.4585 32.8164 42.3081 31.9664 42.3081 31.6264C42.3931 31.2864 41.4585 31.5414 40.3541 32.1364Z" fill="#270887"/>
<path d="M42.7329 33.5814L39.6746 31.7964L38.91 34.0064L41.9683 35.7913L42.7329 33.5814Z" fill="#CDD2D5"/>
<path d="M44.2625 32.6458L41.204 30.8608L39.6748 31.7958L42.7332 33.5808L44.2625 32.6458Z" fill="#F7FCFF"/>
<path d="M42.7336 33.581L41.969 35.791L45.1123 34.006L44.2628 32.646L42.7336 33.581Z" fill="#B4BCC1"/>
<path d="M43.5028 33.9207C44.4373 33.4107 45.2019 33.1557 45.3718 33.2407L53.7822 38.0857C53.5274 37.9157 52.7628 38.1707 51.9132 38.7657C51.1487 39.1907 50.554 39.7007 50.2142 40.0407L41.8037 35.1957C42.1436 34.8557 42.8232 34.3457 43.5028 33.9207Z" fill="#0049FF"/>
<path d="M50.2107 40.1253L41.8004 35.2803C41.7154 35.3653 41.6304 35.5353 41.5455 35.6203L49.9558 40.4653C50.0408 40.3803 50.1257 40.2952 50.2107 40.1253Z" fill="#85DFFF"/>
<path d="M50.0413 40.4661L41.6308 35.6211C41.6308 35.7061 41.6308 35.7061 41.6308 35.7911C41.6308 35.8761 41.6308 35.8761 41.7157 35.8761L50.1262 40.7211C50.0413 40.7211 50.0413 40.6361 50.0413 40.6361C49.9563 40.5511 49.9563 40.4661 50.0413 40.4661Z" fill="#4A00FF"/>
<path d="M51.9099 38.8509C50.8055 39.4459 49.9559 40.2959 49.9559 40.6359C49.9559 40.9759 50.8055 40.7209 51.9099 40.1259C53.0142 39.5309 53.8638 38.6809 53.8638 38.3409C53.9487 38.0009 53.0142 38.1709 51.9099 38.8509Z" fill="#270887"/>
<path d="M95.9998 43.7797L53.777 68.1748V65.1148L95.9998 40.7197V43.7797Z" fill="#B72323"/>
<path opacity="0.3" d="M56.4946 75.2299H56.5796L70.0024 67.4949C70.0874 67.4949 70.0874 67.4099 70.0874 67.3249V59.59C70.0874 59.505 70.0024 59.335 69.8325 59.335H69.7476L56.3247 67.0699C56.2398 67.0699 56.2398 67.1549 56.2398 67.2399V74.9749C56.2398 75.1449 56.4097 75.2299 56.4946 75.2299ZM69.9175 59.505C69.9175 59.505 69.9175 59.59 69.9175 59.505L70.0024 67.3249C70.0024 67.3249 70.0024 67.3249 70.0024 67.4099L56.5796 75.1449C56.5796 75.1449 56.4946 75.1449 56.4946 75.0599V67.3249C56.4946 67.3249 56.4946 67.3249 56.4946 67.2399L69.9175 59.505C69.8325 59.505 69.8325 59.505 69.9175 59.505Z" fill="#787E82"/>
<path opacity="0.3" d="M88.7778 56.5303H88.8627L95.1495 52.8753C95.2344 52.8753 95.2344 52.7903 95.2344 52.7053V44.9703C95.3194 44.8853 95.1495 44.8003 95.0645 44.8003H94.9795L88.6928 48.4553C88.6079 48.4553 88.6079 48.5403 88.6079 48.6253V56.3603C88.6079 56.4453 88.6928 56.5303 88.7778 56.5303ZM95.0645 44.9703C95.0645 44.9703 95.1495 44.9703 95.0645 44.9703L95.1495 52.7053C95.1495 52.7053 95.1495 52.7053 95.1495 52.7903L88.8627 56.4453C88.8627 56.4453 88.7778 56.4453 88.7778 56.3603V48.6253C88.7778 48.6253 88.7778 48.6253 88.7778 48.5403L95.0645 44.9703Z" fill="#787E82"/>
<path d="M62.6972 66.1348L63.6317 65.5398C63.9715 65.3698 64.2263 64.9448 64.2263 64.6898V64.1798C64.2263 63.8398 63.9715 63.7548 63.6317 63.9248L62.6972 64.5198C62.3574 64.6898 62.1025 65.1148 62.1025 65.3698V65.8798C62.1025 66.2198 62.3574 66.3048 62.6972 66.1348Z" fill="#303435"/>
<path d="M63.3784 65.7097L63.0385 65.8797V64.3497L63.3784 64.1797V65.7097Z" fill="#787E82"/>
<path d="M91.6663 49.3897L92.6008 48.7947C92.9407 48.6247 93.1956 48.1997 93.1956 47.9447V47.4347C93.1956 47.0947 92.9407 47.0097 92.6008 47.1797L91.6663 47.7747C91.3264 47.9447 91.0715 48.3697 91.0715 48.6247V49.1347C91.0715 49.4747 91.3264 49.5597 91.6663 49.3897Z" fill="#303435"/>
<path d="M92.2603 48.9642L92.0055 49.1342V47.5191L92.2603 47.3491V48.9642Z" fill="#787E82"/>
<path opacity="0.3" d="M56.495 62.9897H56.5799L70.0027 55.2547C70.0876 55.2547 70.0876 55.1697 70.0876 55.0847V41.9098C70.0876 41.8248 70.0027 41.6548 69.8328 41.6548H69.7478L56.3251 49.3898C56.2401 49.3898 56.2401 49.4748 56.2401 49.5598V62.7347C56.2401 62.9047 56.41 62.9897 56.495 62.9897ZM69.9177 41.8248C69.9177 41.8248 69.9177 41.9098 69.9177 41.8248L70.0027 54.9997C70.0027 54.9997 70.0027 54.9997 70.0027 55.0847L56.5799 62.8197C56.5799 62.8197 56.495 62.8197 56.495 62.7347V49.6448C56.495 49.6448 56.495 49.6448 56.495 49.5598L69.9177 41.8248C69.8328 41.8248 69.8328 41.8248 69.9177 41.8248Z" fill="#787E82"/>
<path d="M62.6974 48.4547L63.6319 47.8597C63.9717 47.6897 64.2266 47.2647 64.2266 47.0097V46.4997C64.2266 46.1597 63.9717 46.0747 63.6319 46.2447L62.6974 46.8397C62.3576 47.0097 62.1028 47.4347 62.1028 47.6897V48.1997C62.1028 48.5397 62.3576 48.6247 62.6974 48.4547Z" fill="#303435"/>
<path d="M63.3787 48.1145L63.0387 48.2845V46.6695L63.3787 46.4995V48.1145Z" fill="#787E82"/>
<path d="M73.9974 48.3696L91.753 38.0846C92.6026 37.5746 93.1973 36.5546 93.1973 35.7896V29.6697C93.1973 28.8197 92.5176 28.5647 91.753 29.0747L73.9974 39.3596C73.1479 39.8696 72.5532 40.8896 72.5532 41.6546V47.7746C72.5532 48.5396 73.2328 48.8796 73.9974 48.3696Z" fill="#303E41"/>
<path d="M73.4851 48.1114L91.3258 37.8264C92.1754 37.3164 92.7701 36.2964 92.7701 35.5314V29.4114C92.7701 29.2414 92.7701 29.0714 92.6851 28.9014C93.0249 28.9864 93.2798 29.2414 93.2798 29.7514V35.8714C93.2798 36.7214 92.6001 37.7414 91.8355 38.1664L73.9949 48.4514C73.4002 48.7914 72.8905 48.7064 72.6356 48.2814C72.8905 48.2814 73.1453 48.2814 73.4851 48.1114Z" fill="#EBF0F3"/>
<path d="M48.5933 60.7799C48.5083 57.2099 48.1685 53.3849 48.0836 52.1949L48.3384 52.0249C48.3384 52.0249 48.8482 56.6999 48.9331 60.9499L33.7262 69.6199C33.7262 69.6199 33.8112 69.4499 33.8962 69.1099L48.5933 60.7799Z" fill="#EBF0F3"/>
<path d="M87.3328 27.1183L86.908 26.8633V30.0083L87.3328 30.1783V27.1183Z" fill="#D9E3E8"/>
<path d="M89.9695 25.5035L89.6297 25.3335L86.9111 26.8634L87.3358 27.1184L89.9695 25.5035Z" fill="#EBF0F3"/>
<path d="M87.3354 27.114V30.174L89.969 28.644V25.499L87.3354 27.114Z" fill="#C1CACF"/>
<path d="M87.9253 27.5435L87.5855 27.3735V29.8385L87.9253 30.0085V27.5435Z" fill="#B4CAD4"/>
<path d="M90.0496 26.2691L89.7947 26.0991L87.5859 27.3741L87.9257 27.5441L90.0496 26.2691Z" fill="#E1F5FF"/>
<path d="M87.926 27.5397V30.0047L90.0498 28.8147V26.2646L87.926 27.5397Z" fill="#C1D9E4"/>
<path d="M91.7481 24.4835L91.4082 24.3135V27.3735L91.833 27.6285L91.7481 24.4835Z" fill="#D9E3E8"/>
<path d="M94.4702 22.9537L94.1304 22.7837L91.4119 24.3137L91.7517 24.4837L94.4702 22.9537Z" fill="#EBF0F3"/>
<path d="M91.7515 24.4782L91.8364 27.6232L94.47 26.0082V22.9482L91.7515 24.4782Z" fill="#C1CACF"/>
<path d="M92.3464 24.9923L92.0915 24.8223V27.2873L92.4314 27.4573L92.3464 24.9923Z" fill="#8D1B1B"/>
<path d="M94.5549 23.7188L94.3001 23.5488L92.0912 24.8238L92.346 24.9937L94.5549 23.7188Z" fill="#FF3939"/>
<path d="M92.346 24.9889L92.4309 27.4539L94.5549 26.1789V23.7139L92.346 24.9889Z" fill="#B72323"/>
<path d="M55.0503 45.4791L54.7104 45.2241V48.3691L55.0503 48.5391V45.4791Z" fill="#D9E3E8"/>
<path d="M57.688 43.9493L57.3482 43.6943L54.7145 45.2243L55.0543 45.4793L57.688 43.9493Z" fill="#EBF0F3"/>
<path d="M55.0513 45.4753V48.5353L57.6848 47.0053V43.9453L55.0513 45.4753Z" fill="#C1CACF"/>
<path d="M55.6458 45.9049L55.3059 45.7349V48.2848L55.6458 48.4548V45.9049Z" fill="#8D1B1B"/>
<path d="M57.77 44.6295L57.5151 44.4595L55.3062 45.7345L55.646 45.9045L57.77 44.6295Z" fill="#FF3939"/>
<path d="M55.6457 45.9005V48.4506L57.8545 47.1755L57.7695 44.6255L55.6457 45.9005Z" fill="#B72323"/>
<path d="M59.5518 42.9298L59.212 42.6748V45.7348L59.5518 45.9898V42.9298Z" fill="#D9E3E8"/>
<path d="M62.189 41.3145L61.8491 41.1445L59.2155 42.6745L59.5554 42.9295L62.189 41.3145Z" fill="#EBF0F3"/>
<path d="M59.5551 42.9255V45.9855L62.189 44.4555V41.3105L59.5551 42.9255Z" fill="#C1CACF"/>
<path d="M60.1487 43.3555L59.809 43.1855V45.6505L60.1487 45.8205V43.3555Z" fill="#B4CAD4"/>
<path d="M62.2715 42.0802L62.0166 41.9102L59.8077 43.1852L60.1475 43.3552L62.2715 42.0802Z" fill="#E1F5FF"/>
<path d="M60.148 43.3507V45.8157L62.2717 44.6257V42.0757L60.148 43.3507Z" fill="#C1D9E4"/>
<path d="M34.7466 52.9566L35.0864 51.7666C35.0864 51.8516 35.0864 51.9366 35.2563 52.0216C35.4262 52.1066 35.766 52.1066 35.9359 52.0216C36.0209 51.9366 36.1059 51.8516 36.1059 51.7666L36.4457 52.9566C36.5306 53.1266 36.4457 53.2966 36.1908 53.3816C35.851 53.5516 35.3412 53.5516 35.0014 53.3816C34.7466 53.2966 34.6616 53.1266 34.7466 52.9566Z" fill="#FF6700"/>
<path d="M35.2603 51.5999C35.4302 51.5149 35.7701 51.5149 35.94 51.5999C36.1099 51.6849 36.1099 51.8549 35.94 52.0248C35.7701 52.1098 35.4302 52.1098 35.2603 52.0248C35.0904 51.8549 35.0904 51.6849 35.2603 51.5999Z" fill="#FF8600"/>
<path d="M28.2885 49.046L28.6283 47.856C28.6283 47.941 28.6283 48.026 28.7982 48.111C28.9682 48.196 29.308 48.196 29.4779 48.111C29.5629 48.026 29.6478 47.941 29.6478 47.856L29.9877 49.046C30.0726 49.216 29.9877 49.386 29.7328 49.471C29.393 49.641 28.8832 49.641 28.5434 49.471C28.2885 49.386 28.2035 49.216 28.2885 49.046Z" fill="#FF6700"/>
<path d="M28.8023 47.6897C28.9722 47.6047 29.312 47.6047 29.4819 47.6897C29.6519 47.7747 29.6519 47.9447 29.4819 48.1147C29.312 48.1997 28.9722 48.1997 28.8023 48.1147C28.5474 48.0297 28.5474 47.8597 28.8023 47.6897Z" fill="#FF8600"/>
<path d="M21.7481 45.2197L22.088 44.0298C22.088 44.1148 22.088 44.1998 22.2579 44.2848C22.4278 44.3698 22.7677 44.3698 22.9376 44.2848C23.0226 44.1998 23.1075 44.1148 23.1075 44.0298L23.4474 45.2197C23.5323 45.3897 23.4474 45.5597 23.1925 45.6447C22.8527 45.8147 22.3429 45.8147 22.003 45.6447C21.8331 45.5597 21.7481 45.3897 21.7481 45.2197Z" fill="#FF6700"/>
<path d="M22.262 43.864C22.432 43.779 22.7718 43.779 22.9417 43.864C23.1116 43.949 23.1116 44.119 22.9417 44.289C22.7718 44.374 22.432 44.374 22.262 44.289C22.0921 44.119 22.0921 43.949 22.262 43.864Z" fill="#FF8600"/>
<path d="M86.9095 46.5L87.5042 48.115L87.3342 48.2L87.1643 47.775L86.4847 48.2L86.3148 48.795L86.1449 48.88L86.6546 46.67L86.9095 46.5ZM87.0794 47.69L86.7396 46.755L86.3997 48.03L87.0794 47.69ZM84.1909 48.115L83.9361 48.285V50.24L84.106 50.155V48.965V48.54L84.7006 49.815L84.8706 49.73L85.4652 47.775V48.2V49.39L85.6351 49.305V47.35L85.3803 47.52L84.7856 49.475L84.1909 48.115ZM82.5768 49.985C82.4069 49.985 82.3219 49.985 82.3219 49.73V49.645C82.3219 49.305 82.5768 48.965 82.9166 48.795L83.4263 48.54V50.495L82.9166 50.835C82.5768 51.005 82.3219 51.005 82.3219 50.665V50.58C82.237 50.41 82.4069 50.155 82.5768 49.985ZM83.1715 48.88L82.8316 49.05C82.5768 49.135 82.4069 49.39 82.4069 49.645C82.4069 49.9 82.5768 49.9 82.8316 49.73L83.1715 49.56V48.88ZM82.4069 50.58C82.4069 50.835 82.5768 50.835 82.8316 50.665L83.1715 50.495V49.73L82.8316 49.9C82.5768 50.07 82.4069 50.24 82.4069 50.58ZM80.6228 50.155L80.4529 50.24V51.6C80.4529 52.025 80.6228 52.11 81.0476 51.855C81.4724 51.6 81.6423 51.345 81.6423 50.835V49.475L81.4724 49.56V50.92C81.4724 51.26 81.3025 51.515 81.0476 51.685C80.7078 51.855 80.6228 51.855 80.6228 51.43V50.155ZM79.6883 52.535L78.8388 53.045V53.215L79.8582 52.535V50.58L79.6883 50.665V52.535ZM77.9043 51.685L78.4989 53.3L78.329 53.385L78.1591 52.96L77.4795 53.385L77.3096 53.98L77.1397 54.065L77.7344 51.77L77.9043 51.685ZM78.0742 52.96L77.7344 52.025L77.3945 53.3L78.0742 52.96ZM75.5255 53.13L75.3556 53.215V55.17L75.5255 55.085L76.46 52.875V53.3V54.49L76.6299 54.405V52.45L76.46 52.535L75.5255 54.66V54.235V53.13ZM73.4866 54.915H73.6565C73.6565 54.49 73.7415 54.235 74.0813 54.065C74.4211 53.895 74.591 54.065 74.591 54.575V54.66C74.591 55.17 74.4211 55.51 74.0813 55.68C73.8264 55.85 73.6565 55.765 73.6565 55.425L73.4866 55.51C73.4866 55.935 73.6565 56.02 74.0813 55.765C74.5061 55.51 74.7609 55.085 74.7609 54.405V54.32C74.7609 53.64 74.5061 53.47 74.0813 53.725C73.6565 54.15 73.4866 54.49 73.4866 54.915ZM72.722 54.915V55.595L71.9574 56.02V56.19L72.722 55.765V56.53L71.7875 57.04V57.21L72.8919 56.615V54.66L71.7875 55.255V55.425L72.722 54.915Z" fill="#B4BCC1"/>
<path d="M60.6584 56.1049C61.0832 55.6799 61.423 55.1699 61.8478 54.7449C61.9328 54.6599 61.9328 54.6599 61.8478 54.6599C61.423 54.6599 61.0832 54.6599 60.6584 54.6599C60.5734 54.6599 60.5734 54.6599 60.6584 54.5749C60.9133 53.9799 61.1681 53.4699 61.423 52.8749C61.423 52.7899 61.508 52.7899 61.508 52.7899C61.8478 52.7899 62.1876 52.7899 62.6124 52.7899C62.6124 52.7899 62.6124 52.7899 62.6974 52.7899V52.7049C62.6974 52.2799 62.6974 51.8549 62.6974 51.4299C62.6974 51.3449 62.6974 51.3449 62.7824 51.3449C63.2921 51.0899 63.7169 50.7499 64.2266 50.4949C64.3116 50.4949 64.3116 50.4949 64.3116 50.4949C64.3116 50.9199 64.3116 51.3449 64.3116 51.7699V51.8549C64.3116 51.7699 64.3966 51.7699 64.3966 51.7699C64.7364 51.3449 65.0762 50.9199 65.501 50.4949C65.586 50.4099 65.586 50.4099 65.586 50.4949C65.8408 50.7499 66.0957 51.0899 66.3506 51.3449V51.4299C65.9258 51.8549 65.586 52.3649 65.1612 52.7899C65.0762 52.8749 65.0762 52.8749 65.1612 52.8749C65.501 52.8749 65.9258 52.8749 66.2656 52.8749C66.3506 52.8749 66.3506 52.8749 66.2656 52.9599C66.0108 53.5549 65.7559 54.0649 65.501 54.6599C65.501 54.7449 65.416 54.7449 65.416 54.7449C65.0762 54.7449 64.7364 54.7449 64.3116 54.7449H64.2266V54.8299C64.2266 55.2549 64.2266 55.6799 64.2266 56.1049C64.2266 56.1899 64.2266 56.1899 64.1417 56.1899C63.6319 56.4449 63.1222 56.7849 62.6974 57.0399C62.6124 57.0399 62.6124 57.0399 62.6124 57.0399C62.6124 56.6149 62.6124 56.1899 62.6124 55.7649V55.6799C62.6124 55.6799 62.5275 55.6799 62.5275 55.7649C62.1876 56.1899 61.7629 56.6149 61.423 57.0399C61.3381 57.1248 61.3381 57.1248 61.3381 57.0399C61.0832 56.7849 60.8283 56.4449 60.5734 56.1899C60.6584 56.1899 60.6584 56.1899 60.6584 56.1049Z" fill="#0E578E"/>
<path opacity="0.8" d="M12.3183 62.9901L12.9979 62.3101C15.4616 64.7751 19.7943 67.0701 23.7021 68.4301L23.0225 69.1101C19.1146 67.7501 14.9519 65.4551 12.3183 62.9901Z" fill="#303435"/>
<defs>
<linearGradient id="paint0_linear_2749_3458" x1="83.4768" y1="50.9639" x2="86.8972" y2="58.0968" gradientUnits="userSpaceOnUse">
<stop offset="0.00537634" stop-color="#222526"/>
<stop offset="0.3283" stop-color="#323638"/>
<stop offset="1" stop-color="#515659"/>
</linearGradient>
<linearGradient id="paint1_linear_2749_3458" x1="85.3403" y1="60.8264" x2="78.2777" y2="60.8264" gradientUnits="userSpaceOnUse">
<stop stop-color="#323232"/>
<stop offset="0.629" stop-color="#201F1D"/>
<stop offset="1" stop-color="#12100C"/>
</linearGradient>
<linearGradient id="paint2_linear_2749_3458" x1="79.968" y1="59.9295" x2="80.458" y2="62.7004" gradientUnits="userSpaceOnUse">
<stop stop-color="#CAE3E5"/>
<stop offset="1" stop-color="#9AAEB0"/>
</linearGradient>
<linearGradient id="paint3_linear_2749_3458" x1="82.1497" y1="60.0342" x2="79.7106" y2="60.3048" gradientUnits="userSpaceOnUse">
<stop stop-color="#ACC1C4"/>
<stop offset="1" stop-color="#9AAEB0"/>
</linearGradient>
<linearGradient id="paint4_linear_2749_3458" x1="80.7286" y1="64.7413" x2="84.1701" y2="53.8565" gradientUnits="userSpaceOnUse">
<stop stop-color="#F4FEFF"/>
<stop offset="0.5538" stop-color="#CAE3E5"/>
<stop offset="1" stop-color="#9AAEB0"/>
</linearGradient>
<linearGradient id="paint5_linear_2749_3458" x1="84.3136" y1="63.9902" x2="79.7674" y2="58.9601" gradientUnits="userSpaceOnUse">
<stop stop-color="#ACC1C4"/>
<stop offset="1" stop-color="#748385"/>
</linearGradient>
<linearGradient id="paint6_linear_2749_3458" x1="34.342" y1="76.1325" x2="39.9974" y2="82.5733" gradientUnits="userSpaceOnUse">
<stop offset="0.00537634" stop-color="#222526"/>
<stop offset="0.3283" stop-color="#323638"/>
<stop offset="1" stop-color="#515659"/>
</linearGradient>
<linearGradient id="paint7_linear_2749_3458" x1="36.0077" y1="85.3721" x2="28.9451" y2="85.3721" gradientUnits="userSpaceOnUse">
<stop stop-color="#323232"/>
<stop offset="0.629" stop-color="#201F1D"/>
<stop offset="1" stop-color="#12100C"/>
</linearGradient>
<linearGradient id="paint8_linear_2749_3458" x1="30.7772" y1="82.3724" x2="34.088" y2="88.1038" gradientUnits="userSpaceOnUse">
<stop stop-color="#CFE7EB"/>
<stop offset="0.5094" stop-color="#A4B9BB"/>
<stop offset="1" stop-color="#7F9191"/>
</linearGradient>
<linearGradient id="paint9_linear_2749_3458" x1="31.0118" y1="82.596" x2="34.1624" y2="88.05" gradientUnits="userSpaceOnUse">
<stop stop-color="#ACC1C4"/>
<stop offset="1" stop-color="#748385"/>
</linearGradient>
<linearGradient id="paint10_linear_2749_3458" x1="31.6366" y1="83.3127" x2="34.1618" y2="87.6843" gradientUnits="userSpaceOnUse">
<stop stop-color="#ACC1C4"/>
<stop offset="1" stop-color="#899B9C"/>
</linearGradient>
<linearGradient id="paint11_linear_2749_3458" x1="32.2819" y1="84.3758" x2="33.6093" y2="86.6733" gradientUnits="userSpaceOnUse">
<stop stop-color="#ACC1C4"/>
<stop offset="1" stop-color="#9AAEB0"/>
</linearGradient>
<linearGradient id="paint12_linear_2749_3458" x1="29.6778" y1="85.0393" x2="31.9494" y2="88.9718" gradientUnits="userSpaceOnUse">
<stop stop-color="#CAE3E5"/>
<stop offset="1" stop-color="#9AAEB0"/>
</linearGradient>
<linearGradient id="paint13_linear_2749_3458" x1="28.9354" y1="84.9617" x2="31.5851" y2="89.5486" gradientUnits="userSpaceOnUse">
<stop stop-color="#CAE3E5"/>
<stop offset="1" stop-color="#9AAEB0"/>
</linearGradient>
<linearGradient id="paint14_linear_2749_3458" x1="36.0107" y1="42.0873" x2="22.6645" y2="65.1913" gradientUnits="userSpaceOnUse">
<stop offset="0.4247" stop-color="#EBF0F3"/>
<stop offset="0.4354" stop-color="#E8EDF0"/>
<stop offset="0.5088" stop-color="#D4D9DC"/>
<stop offset="0.5591" stop-color="#CDD2D5"/>
</linearGradient>
<linearGradient id="paint15_linear_2749_3458" x1="20.1499" y1="63.4727" x2="10.5466" y2="80.0974" gradientUnits="userSpaceOnUse">
<stop offset="0.6344" stop-color="#EBF0F3"/>
<stop offset="0.6392" stop-color="#E1E6E9"/>
<stop offset="0.6487" stop-color="#D6DBDE"/>
<stop offset="0.662" stop-color="#CFD4D7"/>
<stop offset="0.6989" stop-color="#CDD2D5"/>
</linearGradient>
<linearGradient id="paint16_linear_2749_3458" x1="13.5114" y1="71.6231" x2="11.9941" y2="74.2496" gradientUnits="userSpaceOnUse">
<stop stop-color="#FF623B"/>
<stop offset="1" stop-color="#F73C34"/>
</linearGradient>
<linearGradient id="paint17_linear_2749_3458" x1="20.8868" y1="79.2992" x2="19.5379" y2="81.6344" gradientUnits="userSpaceOnUse">
<stop stop-color="#D5F0FA"/>
<stop offset="0.077194" stop-color="#DBF2FB"/>
<stop offset="0.3829" stop-color="#EFF9FD"/>
<stop offset="0.6903" stop-color="#FBFEFF"/>
<stop offset="1" stop-color="white"/>
</linearGradient>
<linearGradient id="paint18_linear_2749_3458" x1="5.20321" y1="70.2152" x2="3.82393" y2="72.6029" gradientUnits="userSpaceOnUse">
<stop stop-color="#D5F0FA"/>
<stop offset="0.077194" stop-color="#DBF2FB"/>
<stop offset="0.3829" stop-color="#EFF9FD"/>
<stop offset="0.6903" stop-color="#FBFEFF"/>
<stop offset="1" stop-color="white"/>
</linearGradient>
<linearGradient id="paint19_linear_2749_3458" x1="24.6675" y1="81.9295" x2="21.518" y2="81.9295" gradientUnits="userSpaceOnUse">
<stop stop-color="#EF671D"/>
<stop offset="0.2313" stop-color="#F57028"/>
<stop offset="0.6437" stop-color="#FC7B36"/>
<stop offset="1" stop-color="#FF7F3B"/>
</linearGradient>
<linearGradient id="paint20_linear_2749_3458" x1="3.19897" y1="78.1231" x2="2.56294" y2="79.2242" gradientUnits="userSpaceOnUse">
<stop stop-color="#A2B2B8"/>
<stop offset="0.2362" stop-color="#B3C0C5"/>
<stop offset="0.7025" stop-color="#DFE5E7"/>
<stop offset="1" stop-color="white"/>
</linearGradient>
<linearGradient id="paint21_linear_2749_3458" x1="19.9081" y1="87.8313" x2="19.272" y2="88.9325" gradientUnits="userSpaceOnUse">
<stop stop-color="#A2B2B8"/>
<stop offset="0.2362" stop-color="#B3C0C5"/>
<stop offset="0.7025" stop-color="#DFE5E7"/>
<stop offset="1" stop-color="white"/>
</linearGradient>
</defs>
</svg>
