<svg width="64" height="64" viewBox="0 0 64 64" fill="none" xmlns="http://www.w3.org/2000/svg">
<path d="M49.139 40.5683C48.1664 40.511 47.2328 40.166 46.4568 39.5769C45.6809 38.9879 45.0975 38.1814 44.7808 37.2601C44.6863 36.9761 44.505 36.729 44.2625 36.5537C44.02 36.3783 43.7285 36.2835 43.4293 36.2827C43.13 36.2819 42.838 36.3752 42.5946 36.5493C42.3512 36.7233 42.1686 36.9695 42.0726 37.253C41.7569 38.1761 41.1736 38.9843 40.3969 39.5747C39.6203 40.1652 38.6855 40.511 37.7116 40.5683C36.739 40.511 35.8055 40.166 35.0295 39.5769C34.2535 38.9879 33.6701 38.1814 33.3535 37.2601C33.2568 36.9767 33.0744 36.7304 32.8315 36.5553C32.5886 36.3803 32.2973 36.2851 31.9979 36.2831C31.6988 36.2809 31.4068 36.3736 31.1637 36.5479C30.9207 36.7222 30.7391 36.969 30.6452 37.253C30.3295 38.1761 29.7462 38.9843 28.9696 39.5747C28.1929 40.1652 27.2581 40.511 26.2842 40.5683C25.3117 40.511 24.3781 40.166 23.6021 39.5769C22.8261 38.9879 22.2427 38.1814 21.9261 37.2601C21.8295 36.9767 21.6471 36.7304 21.4042 36.5553C21.1613 36.3803 20.8699 36.2851 20.5705 36.2831C20.2704 36.2764 19.9763 36.3673 19.7323 36.5422C19.4883 36.7172 19.3078 36.9666 19.2178 37.253C18.9021 38.1761 18.3188 38.9843 17.5422 39.5747C16.7656 40.1652 15.8307 40.511 14.8568 40.5683H12V43.4252H14.8568C15.9654 43.4352 17.0607 43.1834 18.0535 42.6902C19.0464 42.197 19.9088 41.4763 20.5705 40.5869C20.9853 41.1165 21.4652 41.5916 21.999 42.001C21.999 44.6529 23.0524 47.1962 24.9276 49.0713C26.8027 50.9465 29.346 52 31.9979 52C34.6498 52 37.1931 50.9465 39.0682 49.0713C40.9434 47.1962 41.9969 44.6529 41.9969 42.001C42.5306 41.5916 43.0105 41.1165 43.4253 40.5869C44.087 41.4763 44.9494 42.197 45.9423 42.6902C46.9351 43.1834 48.0304 43.4352 49.139 43.4252H51.9958V40.5683H49.139ZM31.9979 49.1388C30.3325 49.136 28.7205 48.5513 27.4406 47.4858C26.1607 46.4203 25.2934 44.941 24.9886 43.3037C25.4159 43.3836 25.8496 43.4242 26.2842 43.4252C27.3928 43.4352 28.4881 43.1834 29.4809 42.6902C30.4738 42.197 31.3362 41.4763 31.9979 40.5869C32.6596 41.4763 33.522 42.197 34.5149 42.6902C35.5078 43.1834 36.603 43.4352 37.7116 43.4252C38.1467 43.4243 38.5809 43.3836 39.0086 43.3037C38.7038 44.9412 37.8363 46.4207 36.5561 47.4862C35.2759 48.5517 33.6635 49.1363 31.9979 49.1388Z" fill="#FB9807"/>
<path d="M37.8115 20.3348C37.7492 19.6217 37.4227 18.9575 36.896 18.4726C36.3694 17.9877 35.6806 17.717 34.9647 17.7137H33.4263V12H30.5694V17.7137H29.0239C28.3224 17.7125 27.6451 17.97 27.1216 18.437C26.5982 18.9041 26.2654 19.5477 26.187 20.2448L23.8273 36.2831H26.7155L27.764 29.141H36.2217L37.2716 36.2831H40.1584L37.8115 20.3348ZM28.184 26.2842L29.0239 20.5705L34.9761 20.6605L35.8017 26.2842H28.184Z" fill="#FB9807"/>
</svg>
