<svg width="64" height="64" viewBox="0 0 64 64" fill="none" xmlns="http://www.w3.org/2000/svg">
<circle cx="32" cy="32" r="32" fill="white" fill-opacity="0.1"/>
<circle cx="31.9999" cy="32.0001" r="24.381" fill="white" fill-opacity="0.2"/>
<circle cx="31.619" cy="31.6191" r="18.2857" fill="white"/>
<path d="M36.1983 28.5072L27.792 24.8202C27.7088 24.7836 27.6191 24.7637 27.5282 24.7619C27.4372 24.76 27.3468 24.7761 27.2621 24.8092C27.1775 24.8426 27.1004 24.8923 27.0352 24.9555C26.97 25.0187 26.918 25.0941 26.8822 25.1775L24.8176 29.9774C24.7458 30.1445 24.7434 30.3333 24.8112 30.5021C24.8789 30.6709 25.0112 30.8061 25.1789 30.8777L29.9667 32.9218L29.1133 35.0475H26.1383V32.9904H24.7619V38.476H26.1383V36.4189H29.1133C29.6797 36.4189 30.1814 36.0802 30.3906 35.5563L31.2316 33.4621L33.5845 34.4667C33.7515 34.5382 33.9401 34.541 34.1091 34.4744C34.2782 34.4079 34.4139 34.2774 34.4867 34.1115L36.5513 29.4096C36.6244 29.2433 36.6282 29.0549 36.562 28.8857C36.4958 28.7165 36.365 28.5804 36.1983 28.5072ZM37.1012 34.6169L35.8225 34.1081L37.1975 30.6796L38.4762 31.1877L37.1012 34.6169Z" fill="#FF1E00"/>
</svg>
