<svg width="64" height="64" viewBox="0 0 64 64" fill="none" xmlns="http://www.w3.org/2000/svg">
<circle cx="32" cy="32" r="32" fill="#00FFD1" fill-opacity="0.1"/>
<circle cx="32" cy="32.0001" r="24.381" fill="#00FFD1" fill-opacity="0.2"/>
<circle cx="32.0001" cy="31.6191" r="18.2857" fill="#00FFD1"/>
<path d="M36.5793 28.5072L28.173 24.8202C28.0898 24.7836 28.0001 24.7637 27.9091 24.7619C27.8182 24.76 27.7278 24.7761 27.6431 24.8092C27.5585 24.8426 27.4813 24.8923 27.4161 24.9555C27.3509 25.0187 27.299 25.0941 27.2632 25.1775L25.1986 29.9774C25.1267 30.1445 25.1244 30.3333 25.1922 30.5021C25.2599 30.6709 25.3922 30.8061 25.5599 30.8777L30.3477 32.9218L29.4943 35.0475H26.5193V32.9904H25.1429V38.476H26.5193V36.4189H29.4943C30.0607 36.4189 30.5624 36.0802 30.7716 35.5563L31.6126 33.4621L33.9655 34.4667C34.1325 34.5382 34.3211 34.541 34.4901 34.4744C34.6591 34.4079 34.7949 34.2774 34.8677 34.1115L36.9323 29.4096C37.0053 29.2433 37.0092 29.0549 36.943 28.8857C36.8768 28.7166 36.746 28.5804 36.5793 28.5072ZM37.4822 34.6169L36.2035 34.1081L37.5785 30.6796L38.8572 31.1877L37.4822 34.6169Z" fill="#132B4F"/>
</svg>
