<svg width="66" height="66" viewBox="0 0 66 66" fill="none" xmlns="http://www.w3.org/2000/svg">
<circle cx="32.9998" cy="33" r="32.25" fill="url(#paint0_radial_622_23)"/>
<path d="M55.0698 29.7924L26.7682 15.2059C26.2109 14.919 25.534 15.1528 25.2561 15.7288L19.2182 28.2428C19.0847 28.5194 19.0631 28.8394 19.158 29.1325C19.2528 29.4256 19.4564 29.6677 19.7241 29.8056L28.1742 34.1606L27.4245 35.7145C27.1467 36.2905 27.3731 36.9901 27.9304 37.2774L28.1968 37.4148L26.7408 40.0947H18.1559C17.3575 38.4987 15.747 37.4069 13.8886 37.4069V47.3333C15.704 47.3333 17.2838 46.2919 18.1001 44.7557H28.0609C28.8761 44.7557 29.6278 44.3011 30.027 43.5664L32.2378 39.4975L32.6221 39.6955C33.1793 39.9826 33.8564 39.7485 34.1343 39.1727L34.884 37.6188L41.1976 40.873C41.5617 41.0607 41.9954 41.0311 42.3324 40.7952L44.0749 39.577L47.1861 41.1805C47.344 41.262 47.5163 41.3031 47.6893 41.3031C47.8098 41.3031 47.9306 41.2829 48.047 41.2427C48.3306 41.1448 48.5648 40.9342 48.6983 40.6577L51.8835 34.0558L55.1866 31.8087C55.5235 31.5795 55.7163 31.1818 55.6921 30.7657C55.668 30.3495 55.4307 29.9785 55.0698 29.7924Z" fill="white"/>
<defs>
<radialGradient id="paint0_radial_622_23" cx="0" cy="0" r="1" gradientUnits="userSpaceOnUse" gradientTransform="translate(25.3852 15.0833) rotate(81.3692) scale(50.7413)">
<stop stop-color="#BAEEF9"/>
<stop offset="0.652002" stop-color="#00B4D8"/>
</radialGradient>
</defs>
</svg>
