<svg width="64" height="64" viewBox="0 0 64 64" fill="none" xmlns="http://www.w3.org/2000/svg">
<rect x="4" width="55.7037" height="55.7037" rx="10" fill="white"/>
<path d="M18.963 31.7629V29.8666H17.037V26.074H18.963V24.1778H22.8148V31.7629H18.963ZM45.9259 26.074V24.1778H42.0741V31.7629H45.9259V29.8666H47.8518V26.074H45.9259ZM44 14.6963H39.8785C39.1852 12.0415 37.0667 9.95553 34.3704 9.27286V7.11108H30.5185V9.27286C27.8222 9.95553 25.7037 12.0415 25.0104 14.6963H20.8889V18.4889H44V14.6963ZM44 45.037H20.8889C20.8889 42.9511 22.6222 41.2444 24.7407 41.2444V20.3852H40.1481V41.2444C41.1697 41.2444 42.1495 41.644 42.8718 42.3552C43.5942 43.0665 44 44.0312 44 45.037ZM28.5926 27.9703C28.5926 28.9762 28.9984 29.9409 29.7208 30.6521C30.4431 31.3634 31.4229 31.7629 32.4444 31.7629C33.466 31.7629 34.4457 31.3634 35.1681 30.6521C35.8905 29.9409 36.2963 28.9762 36.2963 27.9703C36.2963 25.8655 34.5822 24.1778 32.4444 24.1778C30.3067 24.1778 28.5926 25.8844 28.5926 27.9703Z" fill="#ED1313"/>
<path d="M32.4445 64L22.963 54.5185L41.9259 54.5185L32.4445 64Z" fill="white"/>
</svg>
