<svg width="65" height="65" viewBox="0 0 65 65" fill="none" xmlns="http://www.w3.org/2000/svg">
<circle cx="32.75" cy="32.75" r="32" fill="url(#paint0_radial_632_33)"/>
<path d="M54.6491 29.5673L26.5669 15.0939C26.0139 14.8092 25.3422 15.0412 25.0665 15.6128L19.0754 28.0297C18.943 28.3042 18.9215 28.6217 19.0156 28.9125C19.1097 29.2034 19.3117 29.4436 19.5774 29.5805L27.962 33.9017L27.2181 35.4436C26.9424 36.0151 27.1671 36.7093 27.7201 36.9943L27.9844 37.1306L26.5397 39.7897H18.0213C17.2291 38.2061 15.6311 37.1228 13.7871 37.1228V46.9723C15.5885 46.9723 17.1559 45.9389 17.9659 44.4146H27.8495C28.6584 44.4146 29.4043 43.9635 29.8004 43.2346L31.994 39.1972L32.3754 39.3937C32.9282 39.6786 33.6001 39.4463 33.8759 38.8749L34.6198 37.3331L40.8844 40.562C41.2457 40.7482 41.6761 40.7189 42.0104 40.4849L43.7394 39.2761L46.8265 40.8672C46.9832 40.948 47.1541 40.9888 47.3257 40.9888C47.4453 40.9888 47.5652 40.9687 47.6807 40.9288C47.9621 40.8318 48.1945 40.6228 48.3269 40.3484L51.4875 33.7977L54.765 31.568C55.0993 31.3406 55.2905 30.9459 55.2666 30.5331C55.2426 30.1201 55.0071 29.752 54.6491 29.5673Z" fill="white"/>
<defs>
<radialGradient id="paint0_radial_632_33" cx="0" cy="0" r="1" gradientUnits="userSpaceOnUse" gradientTransform="translate(25.1944 14.9722) rotate(81.3692) scale(50.3479)">
<stop stop-color="#8CADFF"/>
<stop offset="0.652002" stop-color="#0048FF"/>
</radialGradient>
</defs>
</svg>
