<svg width="64" height="64" viewBox="0 0 64 64" fill="none" xmlns="http://www.w3.org/2000/svg">
<path d="M47.4251 39.7115C46.5498 39.66 45.7096 39.3494 45.0112 38.8193C44.3128 38.2891 43.7877 37.5633 43.5028 36.7341C43.4177 36.4786 43.2545 36.2562 43.0363 36.0983C42.818 35.9405 42.5557 35.8552 42.2863 35.8545C42.017 35.8538 41.7542 35.9377 41.5351 36.0944C41.316 36.2511 41.1517 36.4726 41.0653 36.7277C40.7812 37.5585 40.2562 38.2859 39.5573 38.8173C38.8583 39.3487 38.0169 39.66 37.1404 39.7115C36.2651 39.66 35.4249 39.3494 34.7265 38.8193C34.0281 38.2891 33.5031 37.5633 33.2181 36.7341C33.1312 36.4791 32.967 36.2574 32.7484 36.0999C32.5298 35.9423 32.2676 35.8567 31.9981 35.8548C31.729 35.8529 31.4661 35.9363 31.2474 36.0932C31.0286 36.25 30.8652 36.4722 30.7807 36.7277C30.4966 37.5585 29.9716 38.2859 29.2726 38.8173C28.5736 39.3487 27.7323 39.66 26.8558 39.7115C25.9805 39.66 25.1403 39.3494 24.4419 38.8193C23.7435 38.2891 23.2185 37.5633 22.9335 36.7341C22.8465 36.4791 22.6824 36.2574 22.4638 36.0999C22.2451 35.9423 21.9829 35.8567 21.7135 35.8548C21.4434 35.8488 21.1786 35.9306 20.9591 36.0881C20.7395 36.2455 20.577 36.47 20.496 36.7277C20.2119 37.5585 19.687 38.2859 18.988 38.8173C18.289 39.3487 17.4477 39.66 16.5712 39.7115H14V42.2827H16.5712C17.5689 42.2917 18.5546 42.0651 19.4482 41.6212C20.3418 41.1773 21.1179 40.5287 21.7135 39.7283C22.0868 40.2049 22.5187 40.6325 22.9991 41.001C22.9991 43.3877 23.9472 45.6766 25.6348 47.3643C27.3225 49.0519 29.6114 50 31.9981 50C34.3848 50 36.6738 49.0519 38.3614 47.3643C40.0491 45.6766 40.9972 43.3877 40.9972 41.001C41.4775 40.6325 41.9094 40.2049 42.2827 39.7283C42.8783 40.5287 43.6545 41.1773 44.548 41.6212C45.4416 42.0651 46.4274 42.2917 47.4251 42.2827H49.9962V39.7115H47.4251ZM31.9981 47.425C30.4993 47.4224 29.0485 46.8962 27.8966 45.9372C26.7446 44.9783 25.9641 43.6469 25.6898 42.1734C26.0743 42.2453 26.4646 42.2818 26.8558 42.2827C27.8535 42.2917 28.8392 42.0651 29.7328 41.6212C30.6264 41.1773 31.4025 40.5287 31.9981 39.7283C32.5937 40.5287 33.3698 41.1773 34.2634 41.6212C35.157 42.0651 36.1427 42.2917 37.1404 42.2827C37.532 42.2819 37.9228 42.2453 38.3077 42.1734C38.0334 43.6472 37.2526 44.9787 36.1005 45.9376C34.9483 46.8966 33.4972 47.4227 31.9981 47.425Z" fill="#FB9807"/>
<path d="M37.2304 21.5014C37.1743 20.8595 36.8804 20.2617 36.4064 19.8253C35.9324 19.3889 35.3125 19.1453 34.6682 19.1423H33.2836V14H30.7125V19.1423H29.3215C28.6901 19.1412 28.0806 19.373 27.6095 19.7933C27.1384 20.2137 26.8389 20.793 26.7683 21.4204L24.6445 35.8548H27.244L28.1876 29.427H35.7995L36.7444 35.8548H39.3426L37.2304 21.5014ZM28.5655 26.8558L29.3215 21.7135L34.6785 21.7945L35.4215 26.8558H28.5655Z" fill="#FB9807"/>
</svg>
