<svg width="25" height="25" viewBox="0 0 25 25" fill="none" xmlns="http://www.w3.org/2000/svg">
<path d="M8.18905 15.9327C7.23207 15.2459 6.45341 14.345 5.91684 13.3038C5.38027 12.2626 5.10106 11.1106 5.10205 9.94232C5.10205 5.85121 8.4598 2.53491 12.6021 2.53491C16.7443 2.53491 20.102 5.85121 20.102 9.94232C20.103 11.1106 19.8238 12.2626 19.2873 13.3038C18.7507 14.345 17.972 15.2459 17.015 15.9327L16.2538 14.6445C17.2486 13.8909 17.9794 12.8484 18.3435 11.6635C18.7076 10.4786 18.6867 9.21081 18.2838 8.03822C17.8809 6.86563 17.1162 5.84716 16.0971 5.12585C15.0781 4.40454 13.8558 4.01664 12.6021 4.01664C11.3483 4.01664 10.126 4.40454 9.10698 5.12585C8.0879 5.84716 7.32321 6.86563 6.92031 8.03822C6.5174 9.21081 6.49654 10.4786 6.86064 11.6635C7.22473 12.8484 7.95551 13.8909 8.9503 14.6445L8.18905 15.9327ZM9.71455 13.3512C9.00582 12.7656 8.49681 11.9787 8.25667 11.0974C8.01653 10.2161 8.0569 9.28319 8.37231 8.42536C8.68772 7.56753 9.26287 6.82639 10.0196 6.30265C10.7764 5.77891 11.678 5.49795 12.6021 5.49795C13.5261 5.49795 14.4277 5.77891 15.1845 6.30265C15.9412 6.82639 16.5164 7.56753 16.8318 8.42536C17.1472 9.28319 17.1876 10.2161 16.9474 11.0974C16.7073 11.9787 16.1983 12.7656 15.4896 13.3512L14.7171 12.0431C15.1384 11.6294 15.4259 11.1015 15.5431 10.5262C15.6603 9.951 15.6019 9.35434 15.3754 8.8119C15.1489 8.26946 14.7643 7.80567 14.2706 7.47932C13.7769 7.15296 13.1962 6.97874 12.6021 6.97874C12.0079 6.97874 11.4272 7.15296 10.9335 7.47932C10.4398 7.80567 10.0552 8.26946 9.82871 8.8119C9.60217 9.35434 9.54381 9.951 9.66101 10.5262C9.77821 11.1015 10.0657 11.6294 10.4871 12.0431L9.71455 13.3512ZM11.8521 10.6831H13.3521L15.602 22.5349H9.60205L11.8521 10.6831Z" fill="#878787"/>
</svg>
