<svg width="64" height="64" viewBox="0 0 64 64" fill="none" xmlns="http://www.w3.org/2000/svg">
<rect x="4" width="55.7037" height="55.7037" rx="10" fill="#6E3AED"/>
<path d="M32.4444 64L22.9629 54.5185L41.9259 54.5185L32.4444 64Z" fill="#6E3AED"/>
<path d="M32.3846 20.3529H20.0769C19.2609 20.3529 18.4782 20.6876 17.9012 21.2833C17.3242 21.879 17 22.687 17 23.5294V29.8824C17 30.7248 17.3242 31.5328 17.9012 32.1285C18.4782 32.7242 19.2609 33.0588 20.0769 33.0588H21.6154V39.4118C21.6154 39.833 21.7775 40.237 22.066 40.5348C22.3545 40.8327 22.7458 41 23.1538 41H26.2308C26.6388 41 27.0301 40.8327 27.3186 40.5348C27.6071 40.237 27.7692 39.833 27.7692 39.4118V33.0588H32.3846L40.0769 39.4118V14L32.3846 20.3529ZM47 26.7059C47 29.4218 45.5231 31.8835 43.1538 33.0588V20.3529C45.5077 21.5441 47 24.0059 47 26.7059Z" fill="white"/>
</svg>
