<svg width="64" height="64" viewBox="0 0 64 64" fill="none" xmlns="http://www.w3.org/2000/svg">
<rect x="4" width="55.7037" height="55.7037" rx="10" fill="white"/>
<path d="M32.4445 64L22.963 54.5185L41.9259 54.5185L32.4445 64Z" fill="white"/>
<path d="M23.163 13.54H27.195V24.34H36.519V13.54H40.551V40H36.519V27.724H27.195V40H23.163V13.54Z" fill="#ED1313"/>
<path d="M23.163 13.54V12.54H22.163V13.54H23.163ZM27.195 13.54H28.195V12.54H27.195V13.54ZM27.195 24.34H26.195V25.34H27.195V24.34ZM36.519 24.34V25.34H37.519V24.34H36.519ZM36.519 13.54V12.54H35.519V13.54H36.519ZM40.551 13.54H41.551V12.54H40.551V13.54ZM40.551 40V41H41.551V40H40.551ZM36.519 40H35.519V41H36.519V40ZM36.519 27.724H37.519V26.724H36.519V27.724ZM27.195 27.724V26.724H26.195V27.724H27.195ZM27.195 40V41H28.195V40H27.195ZM23.163 40H22.163V41H23.163V40ZM23.163 14.54H27.195V12.54H23.163V14.54ZM26.195 13.54V24.34H28.195V13.54H26.195ZM27.195 25.34H36.519V23.34H27.195V25.34ZM37.519 24.34V13.54H35.519V24.34H37.519ZM36.519 14.54H40.551V12.54H36.519V14.54ZM39.551 13.54V40H41.551V13.54H39.551ZM40.551 39H36.519V41H40.551V39ZM37.519 40V27.724H35.519V40H37.519ZM36.519 26.724H27.195V28.724H36.519V26.724ZM26.195 27.724V40H28.195V27.724H26.195ZM27.195 39H23.163V41H27.195V39ZM24.163 40V13.54H22.163V40H24.163Z" fill="black"/>
</svg>
