<svg width="25" height="25" viewBox="0 0 25 25" fill="none" xmlns="http://www.w3.org/2000/svg">
<path d="M10.8308 7.05822C11.0005 7.43722 11.0854 7.8739 11.0854 8.36825C11.0854 8.81316 11.009 9.22512 10.8563 9.60412C10.6526 10.1314 10.3088 10.5434 9.82505 10.84C9.34975 11.1366 8.78535 11.2849 8.13182 11.2849C7.48678 11.2849 6.91813 11.1284 6.42586 10.8153C5.94208 10.5022 5.5941 10.0779 5.38192 9.54233C5.2631 9.221 5.1952 8.87495 5.17822 8.50419C5.17822 8.40532 5.22915 8.35589 5.33099 8.35589H6.83326C6.9351 8.35589 6.98603 8.40532 6.98603 8.50419C7.01998 8.77608 7.06666 8.97794 7.12607 9.10977C7.20246 9.32399 7.32552 9.49289 7.49527 9.61648C7.6735 9.73183 7.88144 9.7895 8.11909 9.7895C8.59438 9.7895 8.92114 9.58764 9.09938 9.18392C9.2182 8.93675 9.27761 8.64838 9.27761 8.31881C9.27761 7.93157 9.21396 7.61436 9.08665 7.36719C8.89144 6.97995 8.56467 6.78632 8.10636 6.78632C8.013 6.78632 7.91539 6.81516 7.81354 6.87284C7.7117 6.92227 7.58863 6.99642 7.44434 7.09529C7.4104 7.12001 7.37645 7.13237 7.3425 7.13237C7.29157 7.13237 7.25338 7.10765 7.22792 7.05822L6.47679 6.03244C6.45981 6.00772 6.45132 5.97889 6.45132 5.94593C6.45132 5.89649 6.4683 5.8553 6.50225 5.82234L8.52648 4.10447C8.54346 4.088 8.5477 4.07152 8.53921 4.05504C8.53921 4.03856 8.52648 4.03032 8.50102 4.03032H5.50923C5.46679 4.03032 5.4286 4.01796 5.39465 3.99325C5.36919 3.96029 5.35646 3.92321 5.35646 3.88202V2.68322C5.35646 2.64202 5.36919 2.60906 5.39465 2.58435C5.4286 2.55139 5.46679 2.53491 5.50923 2.53491H10.8181C10.8605 2.53491 10.8945 2.55139 10.9199 2.58435C10.9539 2.60906 10.9708 2.64202 10.9708 2.68322V4.04268C10.9708 4.10859 10.9411 4.17039 10.8817 4.22806L9.21396 5.71111C9.19698 5.72759 9.18849 5.74407 9.18849 5.76055C9.19698 5.77703 9.2182 5.78527 9.25215 5.78527C9.99055 5.92533 10.5168 6.34965 10.8308 7.05822Z" fill="white"/>
<path d="M12.5627 11.186C12.5203 11.186 12.4821 11.1737 12.4481 11.149C12.4227 11.116 12.4099 11.0789 12.4099 11.0377V2.68322C12.4099 2.64202 12.4227 2.60906 12.4481 2.58435C12.4821 2.55139 12.5203 2.53491 12.5627 2.53491H15.7455C16.382 2.53491 16.9379 2.64614 17.4132 2.8686C17.897 3.08282 18.2705 3.38767 18.5336 3.78315C18.7967 4.17863 18.9282 4.6359 18.9282 5.15497V8.56599C18.9282 9.08505 18.7967 9.54233 18.5336 9.93781C18.2705 10.3333 17.897 10.6423 17.4132 10.8647C16.9379 11.0789 16.382 11.186 15.7455 11.186H12.5627ZM14.205 9.62884C14.205 9.67003 14.2262 9.69063 14.2687 9.69063H15.8091C16.1995 9.69063 16.5136 9.56292 16.7512 9.30751C16.9974 9.0521 17.1247 8.71017 17.1331 8.28173V5.43922C17.1331 5.01078 17.0101 4.66886 16.7639 4.41344C16.5263 4.15803 16.2038 4.03032 15.7964 4.03032H14.2687C14.2262 4.03032 14.205 4.05092 14.205 4.09212V9.62884Z" fill="white"/>
<path d="M13.2038 13.7849H6.31928C5.68907 13.7849 5.17822 14.2725 5.17822 14.8741V21.4457C5.17822 22.0473 5.68907 22.5349 6.31928 22.5349H13.2038C13.834 22.5349 14.3449 22.0473 14.3449 21.4457V14.8741C14.3449 14.2725 13.834 13.7849 13.2038 13.7849ZM17.7251 14.644L15.1088 16.3666V19.9532L17.7251 21.6736C18.2312 22.0063 18.9282 21.6667 18.9282 21.0857V15.2319C18.9282 14.6531 18.2336 14.3113 17.7251 14.644Z" fill="white"/>
</svg>
