<svg width="64" height="64" viewBox="0 0 64 64" fill="none" xmlns="http://www.w3.org/2000/svg">
<rect x="4" width="55.7037" height="55.7037" rx="10" fill="#D8A010"/>
<path d="M32.4444 64L22.9629 54.5185L41.9259 54.5185L32.4444 64Z" fill="#D8A010"/>
<path d="M49.8704 26.9556C50.4103 26.367 50.3208 25.5225 49.6566 25.0786L33.3452 14.1766C32.681 13.733 31.5973 13.7327 30.9331 14.1763L14.6175 25.0701C13.9533 25.5138 13.8279 26.3583 14.3675 26.9472L17.7194 30.631V35.4483C17.1386 35.57 16.5577 36.1646 16.5577 36.8763V38.7641C16.5577 39.5627 17.2077 40.3126 17.9978 40.4304L30.6909 42.3253C31.4809 42.4433 32.7749 42.4433 33.565 42.3253L46.2363 40.4304C47.0263 40.3126 47.6333 39.5627 47.6333 38.7641V36.8763C47.6333 36.1648 47.1976 35.57 46.4716 35.4483V30.6342L49.8704 26.9556V26.9556ZM20.0428 35.3892V33.0658H44.0028V35.3892H20.0428ZM27.3034 22.2115C27.3034 22.2115 28.0893 22.2016 28.2827 22.2016C29.9705 22.2016 31.9865 19.9954 32.1317 19.7625C32.2769 19.9954 34.2627 22.2016 35.9505 22.2016C36.1439 22.2016 36.8874 22.2115 36.8874 22.2115V25.8968C36.8874 26.2 36.811 26.4973 36.6994 26.786C36.5488 27.1757 36.3025 27.5495 36.0106 27.9012C35.6535 28.3315 35.2057 28.7209 34.7614 29.0805C33.7412 29.9061 32.1407 30.6322 32.1407 30.6322C32.1407 30.6322 30.5389 29.9061 29.5188 29.0805C29.0744 28.7208 28.6183 28.3315 28.2614 27.9012C27.9694 27.5495 27.6887 27.1757 27.5381 26.786C27.4263 26.4973 27.3034 26.2 27.3034 25.8968V22.2115V22.2115Z" fill="white"/>
</svg>
