<svg width="65" height="64" viewBox="0 0 65 64" fill="none" xmlns="http://www.w3.org/2000/svg">
<circle cx="32.75" cy="32" r="32" fill="white"/>
<path d="M55.0701 29.0421L26.7685 14.4556C26.2112 14.1687 25.5343 14.4025 25.2564 14.9785L19.2185 27.4925C19.085 27.7691 19.0634 28.0891 19.1583 28.3821C19.2531 28.6753 19.4567 28.9174 19.7244 29.0553L28.1745 33.4103L27.4248 34.9642C27.147 35.5402 27.3734 36.2398 27.9307 36.5271L28.1971 36.6644L26.7411 39.3443H18.1562C17.3578 37.7484 15.7473 36.6566 13.8889 36.6566V46.583C15.7043 46.583 17.2841 45.5415 18.1004 44.0054H28.0612C28.8764 44.0054 29.6281 43.5507 30.0273 42.8161L32.2381 38.7472L32.6224 38.9452C33.1796 39.2323 33.8567 38.9982 34.1346 38.4224L34.8843 36.8685L41.1979 40.1226C41.562 40.3103 41.9957 40.2808 42.3327 40.0449L44.0753 38.8267L47.1865 40.4302C47.3443 40.5117 47.5166 40.5527 47.6896 40.5527C47.8101 40.5527 47.9309 40.5325 48.0473 40.4923C48.3309 40.3945 48.5651 40.1839 48.6986 39.9074L51.8838 33.3055L55.1869 31.0584C55.5238 30.8292 55.7166 30.4314 55.6924 30.0154C55.6683 29.5992 55.431 29.2282 55.0701 29.0421Z" fill="#00B4D8"/>
</svg>
