<svg width="117" height="116" viewBox="0 0 117 116" fill="none" xmlns="http://www.w3.org/2000/svg">
<g filter="url(#filter0_d_681_24)">
<path d="M101.052 58C101.052 81.7482 81.9982 101 58.4948 101C34.9914 101 15.9381 81.7482 15.9381 58C15.9381 34.2518 34.9914 15 58.4948 15C81.9982 15 101.052 34.2518 101.052 58ZM18.4915 58C18.4915 80.3233 36.4016 98.42 58.4948 98.42C80.588 98.42 98.4981 80.3233 98.4981 58C98.4981 35.6767 80.588 17.58 58.4948 17.58C36.4016 17.58 18.4915 35.6767 18.4915 58Z" fill="#FF0000"/>
</g>
<path d="M10 20V10H19.8969" stroke="#FF0000" stroke-width="2"/>
<path d="M96.1031 10L106 10L106 20" stroke="#FF0000" stroke-width="2"/>
<path d="M106 96L106 106L96.1031 106" stroke="#FF0000" stroke-width="2"/>
<path d="M19.8969 106L10 106L10 96" stroke="#FF0000" stroke-width="2"/>
<defs>
<filter id="filter0_d_681_24" x="0.93811" y="0" width="115.113" height="116" filterUnits="userSpaceOnUse" color-interpolation-filters="sRGB">
<feFlood flood-opacity="0" result="BackgroundImageFix"/>
<feColorMatrix in="SourceAlpha" type="matrix" values="0 0 0 0 0 0 0 0 0 0 0 0 0 0 0 0 0 0 127 0" result="hardAlpha"/>
<feOffset/>
<feGaussianBlur stdDeviation="7.5"/>
<feColorMatrix type="matrix" values="0 0 0 0 0.514063 0 0 0 0 0.814844 0 0 0 0 0.875 0 0 0 1 0"/>
<feBlend mode="normal" in2="BackgroundImageFix" result="effect1_dropShadow_681_24"/>
<feBlend mode="normal" in="SourceGraphic" in2="effect1_dropShadow_681_24" result="shape"/>
</filter>
</defs>
</svg>
