<svg width="96" height="96" viewBox="0 0 96 96" fill="none" xmlns="http://www.w3.org/2000/svg">
<path d="M95 48.1111C95 56.2505 89.9088 63.7541 81.3972 69.2708C72.8954 74.7813 61.0905 78.2222 48 78.2222C34.9095 78.2222 23.1046 74.7813 14.6028 69.2708C6.09117 63.7541 1 56.2505 1 48.1111C1 39.9717 6.09117 32.4682 14.6028 26.9514C23.1046 21.441 34.9095 18 48 18C61.0905 18 72.8954 21.441 81.3972 26.9514C89.9088 32.4682 95 39.9717 95 48.1111Z" fill="#E12727" fill-opacity="0.1" stroke="url(#paint0_linear_2641_3102)" stroke-width="2"/>
<path d="M81.2777 47.2222C81.2777 52.8749 77.5527 58.0717 71.362 61.8814C65.1794 65.686 56.6066 68.0556 47.111 68.0556C37.6154 68.0556 29.0426 65.686 22.86 61.8814C16.6693 58.0717 12.9443 52.8749 12.9443 47.2222C12.9443 41.5696 16.6693 36.3728 22.86 32.5631C29.0426 28.7585 37.6154 26.3889 47.111 26.3889C56.6066 26.3889 65.1794 28.7585 71.362 32.5631C77.5527 36.3728 81.2777 41.5696 81.2777 47.2222Z" fill="url(#paint1_linear_2641_3102)" fill-opacity="0.4" stroke="url(#paint2_linear_2641_3102)"/>
<path d="M59.918 60.3422L25.8024 40.6444C23.438 39.2755 23.3935 37.4711 25.7046 36.6267C28.0158 35.7822 31.838 36.2089 34.2024 37.5689L68.318 57.2667C70.6824 58.6355 70.7269 60.44 68.4158 61.2844C66.1135 62.1378 62.2824 61.7111 59.918 60.3422Z" fill="black" fill-opacity="0.7" style="mix-blend-mode:darken"/>
<path d="M61.5625 25.3022C61.5625 25.3022 59.9714 28.0489 60.0869 31.0978C60.1403 32.4756 60.1314 35.6134 60.1314 35.6134L59.3047 34.6445C59.3047 34.6445 59.0469 31.0711 59.0825 30.3067C59.1181 29.5422 60.4158 25.6934 60.4158 25.6934L61.5625 25.3022Z" fill="#AEB1B3"/>
<path d="M65.7404 23.1777C65.7315 23.3199 65.6692 23.3999 65.5892 23.4355C65.5715 23.4444 62.5048 25.151 62.487 25.1599C62.4248 25.1688 62.5492 25.0266 62.4692 24.9732C62.2559 24.8221 62.1048 24.4932 62.1315 24.2444C62.1404 24.1377 61.9092 24.1999 61.9626 24.1555C61.9804 24.1288 65.1092 22.4044 65.1181 22.3955C65.1981 22.3599 65.2959 22.3777 65.4026 22.4488C65.6159 22.5999 65.767 22.9288 65.7404 23.1777Z" fill="#322920"/>
<path d="M62.6116 24.9199C62.585 25.1777 62.3983 25.2577 62.185 25.1154C61.9716 24.9643 61.8205 24.6354 61.8472 24.3777C61.8738 24.1199 62.0605 24.0399 62.265 24.1821C62.4783 24.3332 62.6294 24.6621 62.6116 24.9199Z" fill="#524A42"/>
<path d="M63.1359 24.9645C63.1181 25.1956 63.0203 25.3378 62.8781 25.3911C62.8514 25.4 62.4248 25.6489 62.3981 25.6578C62.2826 25.6667 62.5137 25.4267 62.3714 25.3378C62.0159 25.0889 61.7581 24.5289 61.7937 24.0933C61.8203 23.9156 61.4292 24.0045 61.5181 23.9333C61.5359 23.9156 62.0603 23.64 62.087 23.6222C62.2114 23.5689 62.3803 23.5956 62.5581 23.72C62.9226 23.9689 63.1803 24.5289 63.1359 24.9645Z" fill="#322920"/>
<path d="M62.6115 25.249C62.567 25.6845 62.247 25.8268 61.8915 25.5779C61.5359 25.329 61.2781 24.769 61.3137 24.3334C61.3492 23.8979 61.6781 23.7556 62.0337 24.0134C62.3892 24.2623 62.647 24.8134 62.6115 25.249Z" fill="#524A42"/>
<path d="M31.4293 20.5466C31.4293 20.76 31.5093 20.9022 31.6337 20.9644C31.6604 20.9733 31.9893 21.1955 32.016 21.2044C32.1137 21.2222 31.936 20.9822 32.0693 20.9111C32.4249 20.7066 32.7093 20.2177 32.7093 19.8177C32.7093 19.6488 33.0649 19.7733 32.9849 19.6933C32.9671 19.6755 32.5493 19.4177 32.5226 19.4088C32.4071 19.3466 32.2471 19.3555 32.0693 19.4533C31.7137 19.6577 31.4293 20.1466 31.4293 20.5466Z" fill="#FB8D00"/>
<path d="M31.8557 20.8221C31.8557 21.2221 32.1402 21.391 32.4957 21.1865C32.8513 20.9821 33.1357 20.4932 33.1357 20.0932C33.1357 19.6932 32.8513 19.5243 32.4957 19.7287C32.1402 19.9243 31.8557 20.4132 31.8557 20.8221Z" fill="#1F150B"/>
<path d="M31.9802 20.8043C31.9802 21.1776 32.2469 21.3287 32.5669 21.142C32.8958 20.9554 33.1536 20.502 33.1536 20.1287C33.1536 19.7554 32.8869 19.6043 32.5669 19.7909C32.2469 19.9776 31.9802 20.4309 31.9802 20.8043Z" fill="#322920"/>
<path d="M28.087 20.9644L29.3848 20.2088L31.7048 22.7421L32.6025 21.1866L29.927 18.5288L26.9314 20.5021L28.087 20.9644Z" fill="#464F56"/>
<path d="M26.8336 20.9644L25.447 22.1377L26.327 24.9644L27.5892 25.7377L28.407 22.7244L26.8336 20.9644Z" fill="#F41D00"/>
<path d="M59.6604 36.4222C59.6604 36.7333 59.7759 36.9556 59.9626 37.0444C59.9982 37.0622 60.4959 37.3911 60.5315 37.4C60.6826 37.4356 60.4071 37.0711 60.6026 36.9556C61.1271 36.6533 61.5537 35.9244 61.5537 35.32C61.5537 35.0711 62.0782 35.2578 61.9626 35.1422C61.9359 35.1156 61.3137 34.7333 61.2782 34.7156C61.1093 34.6178 60.8693 34.6356 60.6115 34.7867C60.0871 35.0889 59.6604 35.8178 59.6604 36.4222Z" fill="#322920"/>
<path d="M60.3002 36.8222C60.3002 37.4266 60.7268 37.6666 61.2513 37.3644C61.7757 37.0622 62.2024 36.3333 62.2024 35.7289C62.2024 35.1244 61.7757 34.8844 61.2513 35.1866C60.7268 35.4889 60.3002 36.2177 60.3002 36.8222Z" fill="#FB4500"/>
<path d="M60.487 36.7955C60.487 37.3467 60.8781 37.5778 61.3581 37.2933C61.8381 37.0178 62.2292 36.3422 62.2292 35.7822C62.2292 35.2222 61.8381 35 61.3581 35.2844C60.8781 35.56 60.487 36.2355 60.487 36.7955Z" fill="#FB4500"/>
<path d="M60.6116 36.6889C60.6116 37.1511 60.9404 37.3378 61.3404 37.1067C61.7404 36.8756 62.0693 36.3156 62.0693 35.8533C62.0693 35.3911 61.7404 35.2044 61.3404 35.4356C60.9404 35.6667 60.6116 36.2267 60.6116 36.6889Z" fill="#FB8D00"/>
<path d="M61.0115 38.2979L60.1315 38.3334L62.7271 45.3645L63.616 45.3201L61.0115 38.2979Z" fill="#322920"/>
<path d="M63.3314 44.1733L62.1581 44.2178L62.5847 45.3645L63.7581 45.32L63.3314 44.1733Z" fill="#AEB1B3"/>
<path d="M61.2869 38.2799L60.7446 38.8932L60.0069 38.7154L56.8246 30.3777L58.2558 30.3154L61.2869 38.2799Z" fill="#616567"/>
<path d="M60.4871 38.4667L57.2337 40.1289H56.6204L54.7804 35.7378L54.4604 34.8311L55.1448 34.1289L58.1493 32.3689L60.1315 35.6222L60.4871 38.4667Z" fill="#1D1309"/>
<path d="M26.3268 20.0489L30.0424 17.8889L32.8246 20.9111L32.2913 21.4L29.9713 18.8489L27.5179 20.2978L37.4379 27.7645L44.3979 31.5245L45.3135 34.4578L43.9001 35.2045L40.3268 33.4445L27.189 21.5867L26.3268 20.0489Z" fill="#D5D8DA"/>
<path d="M38.4513 22.3332C38.4513 22.3332 41.5447 25.1865 42.0336 25.6132C42.5225 26.0398 45.5802 27.382 45.758 27.6932C45.9358 27.9954 45.0647 29.9865 44.8069 29.9598C44.5402 29.9243 41.6602 31.8532 41.6602 31.8532C41.6602 31.8532 30.9047 21.1154 30.7802 20.6709C30.6469 20.2265 32.9225 19.5154 32.9936 19.4354C33.0736 19.3465 34.6558 20.1732 38.4513 22.3332Z" fill="#322920"/>
<path d="M45.5803 38.4666L49.687 40.9466L50.6025 42.7243L50.087 46.0843L45.0114 43.151L44.6825 41.6754L44.3981 39.9954L45.5803 38.4666Z" fill="#616567"/>
<path d="M48.8601 46.4223L51.9445 45.2223L51.989 45.1512L55.1001 40.1557L52.6201 37.8801L52.2823 38.2357L54.469 40.2446L51.6157 44.8223L48.8957 45.8801L44.2557 43.2046L44.0068 43.6312L48.8601 46.4223Z" fill="#D5D8DA"/>
<path d="M51.6069 35.9424L48.878 41.2224L50.6024 44.4668L54.4602 39.2224L53.6691 36.4313L51.6069 35.9424Z" fill="#3B4042"/>
<path d="M48.5136 36.5913L49.9358 40.458L47.8113 40.7424L46.9136 39.8713L45.8469 36.4402L48.5136 36.5913Z" fill="#3B4042"/>
<path d="M39.8381 38.9646C39.8381 42.9023 37.0559 44.4846 33.6337 42.5023C30.2115 40.5201 27.4292 35.729 27.4292 31.7912C27.4292 27.8535 30.2115 26.2712 33.6337 28.2535C37.0559 30.2357 39.8381 35.0268 39.8381 38.9646ZM37.367 37.5335C37.367 35.1601 35.6959 32.2712 33.6248 31.0801C31.5626 29.889 29.8826 30.8401 29.8826 33.2135C29.8826 35.5868 31.5537 38.4757 33.6248 39.6668C35.6959 40.8579 37.367 39.9068 37.367 37.5335Z" fill="#222729"/>
<path d="M32.0515 35.96L29.7404 33.3911L29.1271 33.4444L29.6515 31.6044L30.9137 31.4355C30.9137 31.4355 30.6826 31.88 30.7893 32.1644C30.896 32.4489 31.7582 34.1289 31.7582 34.1289C31.7582 34.1289 31.7671 35.4178 32.0515 35.96Z" fill="#AEB1B3"/>
<path d="M33.0115 34.1024L35.2159 33.9069L35.2781 33.1335L36.5137 35.5691L36.4337 37.2224C36.4337 37.2224 36.1492 36.5113 35.9359 36.3602C35.7137 36.2002 34.3803 35.5691 34.3803 35.5691C34.3803 35.5691 33.447 34.3069 33.0115 34.1024Z" fill="#AEB1B3"/>
<path d="M34.2381 36.9912L34.2203 39.9068L34.7981 40.7068L32.8781 39.9423L31.6425 38.289C31.6425 38.289 32.1937 38.609 32.327 38.4845C32.4603 38.3601 33.0381 37.2934 33.0381 37.2934C33.0381 37.2934 34.0514 37.3468 34.2381 36.9912Z" fill="#AEB1B3"/>
<path d="M38.8779 39.4267C38.8779 43.3645 36.0957 44.9467 32.6735 42.9645C29.2424 40.9823 26.469 36.1912 26.469 32.2534C26.469 28.3156 29.2513 26.7334 32.6735 28.7156C36.1046 30.6978 38.8779 35.4978 38.8779 39.4267ZM36.4157 38.0045C36.4157 35.6312 34.7446 32.7423 32.6735 31.5512C30.6113 30.3601 28.9313 31.3112 28.9313 33.6845C28.9313 36.0578 30.6024 38.9467 32.6735 40.1378C34.7357 41.3289 36.4157 40.3778 36.4157 38.0045Z" fill="#222729"/>
<path d="M38.2114 39.0447C38.2114 42.5558 35.7314 43.9691 32.6648 42.2002C29.607 40.4313 27.1181 36.1558 27.1181 32.6447C27.1181 29.1335 29.5981 27.7202 32.6648 29.4802C35.7314 31.258 38.2114 35.5335 38.2114 39.0447ZM36.4159 38.0047C36.4159 35.6313 34.7448 32.7424 32.6736 31.5513C30.6114 30.3602 28.9314 31.3113 28.9314 33.6847C28.9314 36.058 30.6025 38.9469 32.6736 40.138C34.7359 41.3291 36.4159 40.378 36.4159 38.0047Z" fill="#2D3133"/>
<path d="M37.6069 38.6978C37.6069 41.8267 35.3936 43.0889 32.6736 41.5067C29.9447 39.9334 27.7403 36.1201 27.7403 32.9912C27.7403 29.8623 29.9536 28.6001 32.6736 30.1734C35.4025 31.7556 37.6069 35.5689 37.6069 38.6978ZM36.4158 38.0045C36.4158 35.6312 34.7447 32.7423 32.6736 31.5512C30.6114 30.3601 28.9314 31.3112 28.9314 33.6845C28.9314 36.0578 30.6025 38.9467 32.6736 40.1378C34.7358 41.3289 36.4158 40.3778 36.4158 38.0045Z" fill="#434749"/>
<path d="M37.127 38.4134C37.127 41.2312 35.1358 42.369 32.6736 40.9557C30.2114 39.5334 28.2203 36.0934 28.2203 33.2757C28.2203 30.4579 30.2114 29.3201 32.6736 30.7334C35.1358 32.1557 37.127 35.5957 37.127 38.4134ZM36.4158 38.0045C36.4158 35.6312 34.7447 32.7423 32.6736 31.5512C30.6114 30.3601 28.9314 31.3112 28.9314 33.6845C28.9314 36.0579 30.6025 38.9468 32.6736 40.1379C34.7358 41.329 36.4158 40.3779 36.4158 38.0045Z" fill="#AEB1B3"/>
<path d="M35.2959 37.3645C35.2959 39.0267 34.1226 39.7022 32.6648 38.8667C31.2159 38.0311 30.0337 36.0045 30.0337 34.3334C30.0337 32.6711 31.207 31.9956 32.6648 32.8311C34.1226 33.6667 35.2959 35.6934 35.2959 37.3645Z" fill="#616567"/>
<path d="M31.4613 36.5553C30.7825 35.394 30.775 34.1353 31.4446 33.7438C32.1142 33.3524 33.2074 33.9764 33.8863 35.1376C34.5651 36.2989 34.5726 37.5576 33.903 37.9491C33.2334 38.3405 32.1402 37.7165 31.4613 36.5553Z" fill="#D5D8DA"/>
<path d="M33.7671 36.0755C33.7671 36.3866 33.6515 36.5999 33.4738 36.6888C33.4382 36.7066 33.296 36.8133 33.2515 36.8221C33.1004 36.8488 33.376 36.5022 33.1804 36.3866C32.6649 36.0844 32.2471 35.3644 32.2471 34.7777C32.2471 34.5377 31.7315 34.7155 31.8471 34.5999C31.8738 34.5733 32.1404 34.4133 32.176 34.3955C32.3449 34.2977 32.576 34.3155 32.8338 34.4666C33.3493 34.7599 33.7671 35.4799 33.7671 36.0755Z" fill="#5A656C"/>
<path d="M33.4827 36.2534C33.4827 36.8489 33.0649 37.08 32.5493 36.7867C32.0338 36.4845 31.616 35.7645 31.616 35.1778C31.616 34.5911 32.0338 34.3511 32.5493 34.6445C33.0649 34.9378 33.4827 35.6578 33.4827 36.2534Z" fill="#7D868C"/>
<path d="M33.3049 36.2265C33.3049 36.7776 32.9138 36.9909 32.4427 36.7154C31.9627 36.4398 31.5805 35.7731 31.5805 35.222C31.5805 34.6709 31.9716 34.4576 32.4427 34.7331C32.9138 35.0087 33.3049 35.6754 33.3049 36.2265Z" fill="#5A656C"/>
<path d="M48.878 45.6666L50.4602 42.9466L50.2469 40.1555L45.518 36.9822L45.2424 37.3911L49.7758 40.4311L49.9624 42.8311L48.7002 45L42.4691 41.4088L42.2291 41.8355L48.878 45.6666Z" fill="#D5D8DA"/>
<path d="M49.7313 27.7999C49.7313 27.7999 51.2247 27.5688 53.6513 28.7243C56.078 29.8799 55.8113 30.2088 56.4958 31.8088C57.1802 33.4088 54.7891 35.3643 53.0291 35.231C51.278 35.0977 50.3713 34.751 49.6158 34.3776C48.8602 34.0132 41.7669 31.9776 42.8424 30.6888C45.2069 27.871 49.7313 27.7999 49.7313 27.7999Z" fill="#FBC900"/>
<path d="M46.7803 29.3733C46.7803 29.3733 47.2781 29.0622 49.7048 30.2178C52.1314 31.3733 52.8603 31.7733 53.5448 33.3733C54.2292 34.9733 53.5003 35.9867 51.7403 35.8444C49.9892 35.7111 47.4203 36.3066 46.6648 35.9333C45.9092 35.5689 41.9892 32.8044 42.5137 31.2044C43.0292 29.6311 46.7803 29.3733 46.7803 29.3733Z" fill="#FB8D00"/>
<path d="M55.2424 34.3511L55.4824 36.5644L50.718 38.7244L44.1313 37.8977L43.9269 40.7866L42.1491 39.2933L41.1269 36.7777V35.8089L50.478 36.4666L55.2424 34.3511Z" fill="#D5D8DA"/>
<path d="M48.8779 42.1202C48.8779 43.0802 48.2024 43.4624 47.3668 42.9824C46.5313 42.5024 45.8557 41.329 45.8557 40.369C45.8557 39.409 46.5313 39.0268 47.3668 39.5068C48.2024 39.9868 48.8779 41.1602 48.8779 42.1202Z" fill="#3B4042"/>
<path d="M48.5137 42.0133C48.5137 42.7955 47.9626 43.1155 47.2781 42.7155C46.5937 42.3155 46.0426 41.3644 46.0426 40.5821C46.0426 39.7999 46.5937 39.4799 47.2781 39.8799C47.9626 40.2799 48.5137 41.2221 48.5137 42.0133Z" fill="#7F8385"/>
<path d="M47.6248 41.6045C47.6248 41.889 47.4292 41.9956 47.1803 41.8534C46.9314 41.7112 46.7359 41.3734 46.7359 41.089C46.7359 40.8045 46.9314 40.6978 47.1803 40.8401C47.4292 40.9823 47.6248 41.3201 47.6248 41.6045Z" fill="#616567"/>
<path d="M44.6648 43.3733L44.3981 43.9156L40.8248 42.6178L38.8426 39.5867L25.6959 31.9067C25.5892 31.8444 25.5004 31.7556 25.4292 31.6667L25.1359 31.24C25.0292 31.0889 24.9848 30.92 24.9759 30.7511C24.9492 30.4222 25.1181 30.0756 25.4381 29.8978C25.5626 29.8178 25.7137 29.7822 25.8648 29.7822C26.0159 29.7822 26.167 29.8178 26.3004 29.9067L39.1537 37.7111L41.7937 41.6044L44.407 42.1733L44.6648 43.3733Z" fill="#D5D8DA"/>
<path d="M44.6648 43.3732L44.3981 43.9154L40.8248 42.6176L38.8426 39.5865L25.6959 31.9065C25.5892 31.8443 25.5004 31.7554 25.4292 31.6665L25.1359 31.2399C25.0292 31.0888 24.9848 30.9199 24.9759 30.751C25.0559 30.8488 25.6426 31.4976 26.6737 32.0221C27.7937 32.5999 39.3492 39.6843 39.3492 39.6843C39.3492 39.6843 40.887 42.2443 41.1359 42.3599C41.3848 42.4665 43.9715 43.5243 44.1315 43.5865C44.0959 43.5065 43.8026 42.9554 43.9181 42.8754C44.0337 42.7954 44.407 42.1554 44.407 42.1554L44.6648 43.3732Z" fill="#989DA1"/>
<path d="M35.9356 24.5467C35.9356 24.5467 38.3889 27.08 38.8778 27.5067C39.3667 27.9333 42.4245 29.2756 42.6022 29.5867C42.78 29.8889 41.9089 31.88 41.6511 31.8533C41.3845 31.8178 35.2067 26.3245 35.2067 26.3245C35.2067 26.3245 30.8867 23.5333 30.7622 23.0889C30.6289 22.6445 30.7 20.76 30.7711 20.6711C30.8511 20.5822 32.1489 22.3867 35.9356 24.5467Z" fill="#322920"/>
<path d="M35.8022 23.8089C35.8022 23.8089 38.3889 27.08 38.8778 27.5067C39.3667 27.9334 42.4245 29.2756 42.6022 29.5867C42.78 29.8889 41.9089 31.88 41.6511 31.8534C41.3845 31.8178 35.2067 26.3245 35.2067 26.3245C35.2067 26.3245 30.8867 23.5334 30.7622 23.0889C30.6289 22.6445 30.7 20.76 30.7711 20.6711C30.8511 20.5823 32.0067 21.6489 35.8022 23.8089Z" fill="#1F150B"/>
<path d="M38.5935 22.4666L35.8024 23.8088L35.518 26.5021L35.1802 26.3866L35.5002 23.5333L38.238 22.1377H38.5935L38.8958 22.4133L38.5935 22.4666Z" fill="#342C24"/>
<path d="M38.8958 22.7422L36.1046 24.0844L35.8202 26.7689L35.4824 26.6622L35.8024 23.8089L38.5313 22.4133H38.8958L39.2869 23.1067L38.8958 22.7422Z" fill="#484038"/>
<path d="M68.8513 55.7111C68.8513 59.6489 66.0691 61.2311 62.6469 59.2489C59.2158 57.2667 56.4424 52.4756 56.4424 48.5378C56.4424 44.6 59.2247 43.0178 62.6469 45C66.0691 46.9823 68.8513 51.7734 68.8513 55.7111ZM66.3802 54.2889C66.3802 51.9156 64.7091 49.0267 62.638 47.8356C60.5758 46.6445 58.8958 47.5956 58.8958 49.9689C58.8958 52.3423 60.5669 55.2311 62.638 56.4223C64.7091 57.6134 66.3802 56.6534 66.3802 54.2889Z" fill="#222729"/>
<path d="M60.718 52.982L58.6825 50.7242L58.1402 50.7686L58.6025 49.1509L59.7225 48.9998C59.7225 48.9998 59.518 49.3909 59.6158 49.6398C59.7047 49.8886 60.4691 51.3731 60.4691 51.3731C60.4691 51.3731 60.4691 52.502 60.718 52.982Z" fill="#C7C9CA"/>
<path d="M62.2557 51.1864L64.1935 51.0087L64.2469 50.3242L65.3313 52.4664L65.2602 53.9242C65.2602 53.9242 65.0113 53.302 64.8157 53.1598C64.6202 53.0176 63.4469 52.4664 63.4469 52.4664C63.4469 52.4664 62.638 51.3553 62.2557 51.1864Z" fill="#C7C9CA"/>
<path d="M62.6469 53.8977L62.6291 56.4577L63.1357 57.1599L61.4469 56.4844L60.3624 55.0266C60.3624 55.0266 60.8513 55.3022 60.9669 55.1955C61.0824 55.0888 61.5891 54.1466 61.5891 54.1466C61.5891 54.1466 62.478 54.1999 62.6469 53.8977Z" fill="#C7C9CA"/>
<path d="M67.8914 56.1821C67.8914 60.1199 65.1091 61.7021 61.6869 59.7199C58.2558 57.7376 55.4825 52.9465 55.4825 49.0088C55.4825 45.071 58.2647 43.4888 61.6869 45.471C65.118 47.4532 67.8914 52.2443 67.8914 56.1821ZM65.4291 54.7599C65.4291 52.3865 63.758 49.4976 61.6869 48.3065C59.6247 47.1154 57.9447 48.0665 57.9447 50.4399C57.9447 52.8132 59.6158 55.7021 61.6869 56.8932C63.7491 58.0843 65.4291 57.1243 65.4291 54.7599Z" fill="#222729"/>
<path d="M65.998 45.5422C65.998 45.5422 65.0914 46.9999 64.4336 46.6799C63.7847 46.3599 62.1136 45.4177 61.838 45.3377C61.5625 45.2577 60.3003 44.2977 59.5892 44.6888C58.878 45.0799 57.4647 45.4888 57.4647 45.4888L55.7047 44.6355C55.7047 44.6355 57.3492 41.5511 60.3892 41.9599C63.5625 42.3777 65.998 45.5422 65.998 45.5422Z" fill="#FBC900"/>
<path d="M64.4336 46.6798C64.4336 46.6798 64.1403 46.8398 63.4914 46.5287C62.8425 46.2087 61.6869 45.6931 61.4114 45.6042C61.1358 45.5242 58.7358 45.4354 58.0247 45.8265C57.3136 46.2176 55.9003 46.6265 55.9003 46.6265L55.0114 46.1998C55.0114 46.1998 55.7758 42.6887 58.8247 43.0976C61.998 43.5242 64.4336 46.6798 64.4336 46.6798Z" fill="#FB8D00"/>
<path d="M67.2246 55.7998C67.2246 59.3109 64.7446 60.7242 61.6868 58.9553C58.6291 57.1865 56.1402 52.9109 56.1402 49.3998C56.1402 45.8887 58.6202 44.4753 61.6868 46.2353C64.7446 48.0042 67.2246 52.2798 67.2246 55.7998ZM65.4291 54.7598C65.4291 52.3865 63.7579 49.4976 61.6868 48.3065C59.6246 47.1153 57.9446 48.0665 57.9446 50.4398C57.9446 52.8131 59.6157 55.702 61.6868 56.8931C63.7491 58.0842 65.4291 57.1242 65.4291 54.7598Z" fill="#2D3133"/>
<path d="M66.6201 55.4443C66.6201 58.5732 64.4068 59.8354 61.6868 58.2621C58.9579 56.6888 56.7535 52.8754 56.7535 49.7465C56.7535 46.6176 58.9668 45.3554 61.6868 46.9288C64.4157 48.511 66.6201 52.3154 66.6201 55.4443ZM65.429 54.7599C65.429 52.3865 63.7579 49.4977 61.6868 48.3065C59.6246 47.1154 57.9446 48.0665 57.9446 50.4399C57.9446 52.8132 59.6157 55.7021 61.6868 56.8932C63.749 58.0843 65.429 57.1243 65.429 54.7599Z" fill="#434749"/>
<path d="M66.1401 55.1688C66.1401 57.9866 64.149 59.1244 61.6868 57.711C59.2246 56.2888 57.2335 52.8488 57.2335 50.031C57.2335 47.2133 59.2246 46.0755 61.6868 47.4888C64.149 48.911 66.1401 52.3421 66.1401 55.1688ZM65.429 54.7599C65.429 52.3866 63.7579 49.4977 61.6868 48.3066C59.6246 47.1155 57.9446 48.0666 57.9446 50.4399C57.9446 52.8133 59.6157 55.7021 61.6868 56.8933C63.749 58.0844 65.429 57.1244 65.429 54.7599Z" fill="#AEB1B3"/>
<path d="M64.6914 53.8977C64.6914 55.5599 63.5181 56.2354 62.0603 55.3999C60.6114 54.5643 59.4292 52.5377 59.4292 50.8666C59.4292 49.2043 60.6025 48.5288 62.0603 49.3643C63.5092 50.1999 64.6914 52.2266 64.6914 53.8977Z" fill="#888B8D"/>
<path d="M64.3091 54.111C64.3091 55.7733 63.1357 56.4488 61.678 55.6133C60.2291 54.7777 59.0469 52.751 59.0469 51.0799C59.0469 49.4177 60.2202 48.7422 61.678 49.5777C63.1357 50.4222 64.3091 52.4488 64.3091 54.111Z" fill="#616567"/>
<path d="M63.4202 53.5955C63.4202 54.6888 62.6468 55.1333 61.6868 54.5822C60.7357 54.031 59.9535 52.6977 59.9535 51.5955C59.9535 50.5022 60.7268 50.0577 61.6868 50.6088C62.6379 51.1599 63.4202 52.5022 63.4202 53.5955Z" fill="#B8BDC0"/>
<path d="M41.8024 32.3511L38.8779 30.431L30.3357 23.0355L26.3268 20.0488L26.5668 21.8977L34.4424 28.8666L39.7579 35.7377L41.269 35.3022L43.9001 35.2044L43.5179 34.1377L41.8024 32.3511Z" fill="#989DA1"/>
<path d="M41.3848 36.5822L40.087 36.1734L37.127 34.1289L36.8781 34.9911L37.2781 35.9511L40.7537 38.7778L41.5003 39.9689L42.5137 40.5467L41.3848 36.5822Z" fill="#989DA1"/>
<path d="M55.3757 36.769L49.669 42.3245L49.5624 43.4534H50.3357L55.2779 38.7245L56.1401 37.0623L55.7046 36.209L55.3757 36.769Z" fill="#D5D8DA"/>
<path d="M55.3757 36.769L53.7579 40.449L53.6512 41.5779H54.4246L55.2779 38.7245L56.1401 37.0623L55.7046 36.209L55.3757 36.769Z" fill="#D5D8DA"/>
<path d="M28.8513 23.7998C28.8513 23.7998 32.718 33.142 33.0113 33.6931C33.3047 34.2443 33.9447 33.6931 34.6113 33.4709C35.358 33.2131 35.7402 28.1376 35.7402 28.1376L28.8513 23.7998Z" fill="#2D241B"/>
<path d="M35.9181 26.3957C35.9181 26.3957 36.3803 27.2935 36.1225 28.2713C35.8647 29.249 35.6781 30.3424 34.3536 29.6401C33.0203 28.9468 29.2603 25.4535 28.9047 24.8757C28.5492 24.2979 27.6247 22.8046 27.5981 22.6624C27.5714 22.529 28.8425 21.8001 29.7936 22.3157C30.7447 22.8313 35.7225 25.8446 35.9181 26.3957Z" fill="#322920"/>
<path d="M27.4646 24.2002C27.4646 24.2002 27.7491 29.7469 28.0513 30.298C28.3446 30.8491 32.4691 33.6402 33.2246 33.8624C33.9802 34.0846 34.3535 28.5291 34.3535 28.5291L27.4646 24.2002Z" fill="#484038"/>
<path d="M34.5313 26.8043C34.5313 26.8043 34.9936 27.7021 34.7358 28.6798C34.478 29.6576 34.3802 29.9687 33.0469 29.2754C31.7136 28.5821 27.8647 25.8709 27.5091 25.2932C27.1536 24.7154 27.4024 23.3732 27.3758 23.2398C27.3491 23.1065 27.4469 22.2265 28.4069 22.7332C29.3669 23.2398 34.3358 26.2443 34.5313 26.8043Z" fill="#524A42"/>
<path d="M57.4914 39.3113L56.6025 39.3468L59.2069 46.3779L60.0869 46.3424L57.4914 39.3113Z" fill="#322920"/>
<path d="M62.2559 52.5912L61.6514 52.6178L59.3403 46.369L59.9536 46.3423L62.2559 52.5912Z" fill="#322920"/>
<path d="M59.8115 45.1865L59.3404 45.5687L58.6292 45.231L59.0559 46.3865L59.767 46.8754L60.2292 46.3332L59.8115 45.1865Z" fill="#AEB1B3"/>
<path d="M57.7581 39.3023L57.2514 39.8267L56.4603 39.7023L53.8114 30.2001L55.2336 30.1467L57.7581 39.3023Z" fill="#616567"/>
<path d="M55.3136 35.3376C55.3136 35.3376 52.7447 32.0932 51.0647 31.8799C49.3936 31.6665 52.0336 31.1332 52.0336 31.1332C52.0336 31.1332 53.9714 30.9643 55.2425 33.3554C55.5003 33.8354 55.3136 35.3376 55.3136 35.3376Z" fill="#AEB1B3"/>
<path d="M62.318 25.0711C62.3091 25.2044 62.2469 25.2933 62.1669 25.32C62.1491 25.3289 50.2024 32.28 50.1847 32.28C50.1224 32.2889 50.2469 32.1467 50.1669 32.0933C49.9535 31.9422 49.8024 31.6133 49.8291 31.3644C49.838 31.2578 49.6069 31.32 49.6602 31.2755C49.678 31.2667 61.6869 24.2889 61.6958 24.28C61.7758 24.2444 61.8735 24.2622 61.9802 24.3333C62.1935 24.4844 62.3447 24.8133 62.318 25.0711Z" fill="#D5D8DA"/>
<path d="M50.3089 32.0487C50.2822 32.3065 50.0955 32.3954 49.8822 32.2443C49.6689 32.0932 49.5177 31.7643 49.5444 31.5154C49.5711 31.2576 49.7577 31.1687 49.9711 31.3198C50.1755 31.4621 50.3355 31.791 50.3089 32.0487Z" fill="#524A42"/>
<path d="M62.5757 53.169C62.5757 53.4801 62.4601 53.6934 62.2735 53.7823C62.2379 53.8001 62.0957 53.9068 62.0512 53.9157C61.9001 53.9423 62.1757 53.5957 61.9801 53.4801C61.4646 53.1779 61.0468 52.4579 61.0468 51.8712C61.0468 51.6312 60.5312 51.809 60.6468 51.6934C60.6735 51.6668 60.9401 51.5068 60.9757 51.489C61.1446 51.3912 61.3757 51.409 61.6335 51.5601C62.1579 51.8623 62.5757 52.5823 62.5757 53.169Z" fill="#5A656C"/>
<path d="M60.6936 53.1899C60.3269 52.5626 60.3251 51.8814 60.6896 51.6683C61.0541 51.4553 61.6468 51.791 62.0135 52.4182C62.3802 53.0455 62.382 53.7267 62.0175 53.9398C61.6531 54.1529 61.0603 53.8171 60.6936 53.1899Z" fill="#7D868C"/>
<path d="M62.1047 53.3202C62.1047 53.8713 61.7225 54.0847 61.2425 53.8091C60.7625 53.5336 60.3803 52.8669 60.3803 52.3158C60.3803 51.7647 60.7625 51.5513 61.2425 51.8269C61.7136 52.1025 62.1047 52.778 62.1047 53.3202Z" fill="#5A656C"/>
<path d="M56.9224 37.6311C57.0024 37.6756 57.7224 38.1644 57.8113 38.1822C58.1668 38.2533 57.5179 37.4089 57.9801 37.1422C59.2157 36.4311 60.2201 34.6978 60.2201 33.2756C60.2201 32.6889 61.4646 33.1156 61.1801 32.8489C61.1179 32.7956 60.7979 32.5911 60.7179 32.5556C60.309 32.3244 57.2424 31.4178 56.4957 32.6356C55.1179 34.8933 56.4779 37.4178 56.9224 37.6311Z" fill="#AEB1B3"/>
<path d="M57.895 38.2464C57.0262 37.7385 57.037 36.1037 57.919 34.5949C58.8011 33.0861 60.2204 32.2748 61.0892 32.7827C61.958 33.2906 61.9473 34.9255 61.0653 36.4343C60.1832 37.943 58.7639 38.7544 57.895 38.2464Z" fill="#606569"/>
<path d="M57.6959 36.7509C57.6959 38.0665 58.6204 38.5909 59.767 37.9331C60.9137 37.2665 61.8381 35.6665 61.8381 34.3598C61.8381 33.0443 60.9137 32.5198 59.767 33.1776C58.6204 33.8354 57.6959 35.4354 57.6959 36.7509Z" fill="#606569"/>
<path d="M57.9359 36.6179C57.9359 37.7112 58.7092 38.1467 59.6603 37.6045C60.6114 37.0534 61.3848 35.7201 61.3848 34.6267C61.3848 33.5334 60.6114 33.0979 59.6603 33.6401C58.7092 34.1912 57.9359 35.5245 57.9359 36.6179Z" fill="#A0A1A1"/>
<path d="M58.398 35.6221C58.398 36.0577 58.7091 36.2354 59.0824 36.0132C59.4646 35.791 59.7668 35.2666 59.7668 34.831C59.7668 34.3954 59.4646 34.2177 59.0824 34.4399C58.7002 34.6621 58.398 35.1866 58.398 35.6221Z" fill="#DADBDB"/>
<path d="M55.1448 39.4623C55.1448 39.7734 55.2603 39.9956 55.447 40.0845C55.4825 40.1023 55.9803 40.4311 56.0159 40.44C56.167 40.4756 55.8914 40.1111 56.087 39.9956C56.6114 39.6934 57.0381 38.9645 57.0381 38.36C57.0381 38.1111 57.5625 38.2978 57.447 38.1823C57.4203 38.1556 56.7981 37.7734 56.7625 37.7556C56.5937 37.6578 56.3537 37.6756 56.0959 37.8267C55.5714 38.1289 55.1448 38.8667 55.1448 39.4623Z" fill="#FB4500"/>
<path d="M55.6602 40.2267C55.4735 40.1378 55.3579 39.9156 55.3579 39.6045C55.3579 39.0089 55.7846 38.2711 56.3091 37.9689C56.5668 37.8178 56.8068 37.8 56.9757 37.8978C56.9935 37.9067 57.2335 38.0578 57.4202 38.1734C57.3135 38.1023 56.7891 37.7734 56.7624 37.7556C56.5935 37.6578 56.3535 37.6756 56.0957 37.8267C55.5713 38.1289 55.1446 38.8578 55.1446 39.4623C55.1446 39.7734 55.2602 39.9956 55.4468 40.0845C55.4735 40.0934 55.7402 40.2711 55.9002 40.3778C55.7846 40.2978 55.6779 40.2267 55.6602 40.2267Z" fill="#322920"/>
<path d="M55.7846 39.8623C55.7846 40.4668 56.2113 40.7068 56.7358 40.4046C57.2513 40.1023 57.678 39.3734 57.678 38.769C57.678 38.1734 57.2513 37.9246 56.7269 38.2268C56.2113 38.529 55.7846 39.2668 55.7846 39.8623Z" fill="#FB4500"/>
<path d="M55.9714 39.8357C55.9714 40.3868 56.3625 40.6179 56.8425 40.3334C57.3225 40.0579 57.7136 39.3823 57.7136 38.8223C57.7136 38.2712 57.3225 38.0401 56.8425 38.3246C56.3625 38.609 55.9714 39.2846 55.9714 39.8357Z" fill="#FB4500"/>
<path d="M56.0959 39.738C56.0959 40.2002 56.4248 40.3869 56.8248 40.1557C57.2248 39.9246 57.5537 39.3646 57.5537 38.9024C57.5537 38.4402 57.2248 38.2535 56.8248 38.4846C56.4248 38.7157 56.0959 39.2757 56.0959 39.738Z" fill="#FB8D00"/>
<path d="M25.3402 24.9289C25.3402 25.1423 25.4202 25.2845 25.5446 25.3467C25.5713 25.3556 25.9002 25.5778 25.9269 25.5867C26.0246 25.6045 25.8469 25.3645 25.9802 25.2934C26.3357 25.0889 26.6202 24.6001 26.6202 24.2001C26.6202 24.0312 26.9757 24.1556 26.8957 24.0756C26.878 24.0578 26.4602 23.8001 26.4335 23.7912C26.318 23.7289 26.158 23.7378 25.9802 23.8356C25.6246 24.0312 25.3402 24.5201 25.3402 24.9289Z" fill="#FB8D00"/>
<path d="M25.7669 25.1956C25.7669 25.5956 26.0513 25.7645 26.4069 25.5601C26.7624 25.3556 27.0469 24.8667 27.0469 24.4667C27.0469 24.0667 26.7624 23.8978 26.4069 24.1023C26.0513 24.2978 25.7669 24.7867 25.7669 25.1956Z" fill="#1F150B"/>
<path d="M25.9002 25.178C25.9002 25.5514 26.1668 25.7025 26.4868 25.5158C26.8157 25.3292 27.0735 24.8758 27.0735 24.5025C27.0735 24.1292 26.8068 23.978 26.4868 24.1647C26.1579 24.3514 25.9002 24.8047 25.9002 25.178Z" fill="#322920"/>
<path d="M30.4693 28.9289C30.7804 29.1066 31.0738 29 31.1093 28.68L31.216 27.7822C31.2515 27.4622 31.0293 27.0533 30.7093 26.8666C30.3982 26.6889 30.1049 26.7955 30.0693 27.1155L29.9627 28.0133C29.9271 28.3333 30.1582 28.7422 30.4693 28.9289Z" fill="#989DA1"/>
<path d="M30.3446 28.7155C30.6024 28.8666 30.8424 28.7688 30.869 28.511L30.9579 27.7733C30.9846 27.5066 30.7979 27.1777 30.5401 27.0266C30.2824 26.8755 30.0424 26.9733 30.0157 27.231L29.9268 27.9688C29.9001 28.2266 30.0868 28.5644 30.3446 28.7155Z" fill="#D5D8DA"/>
<path d="M59.9979 31.2399C60.2823 30.991 60.3801 30.7421 60.309 30.5288C60.3001 30.4932 59.9179 28.6355 59.9001 28.5999C59.8023 28.4666 59.7046 28.9466 59.4468 28.8932C58.7446 28.751 57.7312 29.0177 57.189 29.4888C56.9668 29.6844 56.7001 29.1599 56.6912 29.3377C56.6912 29.3732 57.1179 31.3644 57.1268 31.4088C57.1801 31.6132 57.3846 31.7732 57.7401 31.8444C58.4512 31.9777 59.4557 31.711 59.9979 31.2399Z" fill="#322920"/>
<path d="M59.5714 29.2309C60.1136 28.7598 59.9803 28.262 59.278 28.1198C58.5758 27.9776 57.5625 28.2442 57.0203 28.7154C56.478 29.1865 56.6114 29.6842 57.3136 29.8265C58.0158 29.9687 59.0292 29.702 59.5714 29.2309Z" fill="#524A42"/>
<path d="M59.3936 29.1154C59.8914 28.6799 59.7758 28.2177 59.1269 28.0843C58.478 27.951 57.5447 28.1999 57.0469 28.6354C56.5491 29.071 56.6647 29.5332 57.3136 29.6666C57.9625 29.7999 58.8869 29.551 59.3936 29.1154Z" fill="#322920"/>
<path d="M59.4379 28.7865C59.4024 28.8932 59.3224 28.9999 59.1979 29.1065C58.7801 29.4621 58.0068 29.6665 57.4646 29.5599C57.2957 29.5243 57.1624 29.4621 57.0913 29.3821C56.9224 29.2132 56.9668 28.9554 57.2424 28.7065C57.669 28.3421 58.4424 28.1376 58.9757 28.2443C59.3579 28.3243 59.5179 28.5376 59.4379 28.7865Z" fill="#313639"/>
<path d="M57.118 32.5556C57.4025 32.3067 57.5002 32.0578 57.4291 31.8445C57.4202 31.8089 57.038 29.9511 57.0202 29.9156C56.9225 29.7823 56.8247 30.2623 56.5669 30.2089C55.8647 30.0667 54.8513 30.3334 54.3091 30.8045C54.0869 31 53.8202 30.4756 53.8113 30.6534C53.8113 30.6889 54.238 32.68 54.2469 32.7245C54.3002 32.9289 54.5047 33.0889 54.8602 33.16C55.5625 33.2934 56.5758 33.0267 57.118 32.5556Z" fill="#322920"/>
<path d="M56.6913 30.5378C57.2335 30.0667 57.1001 29.5689 56.3979 29.4267C55.6957 29.2845 54.6824 29.5511 54.1401 30.0222C53.5979 30.4933 53.7313 30.9911 54.4335 31.1333C55.1357 31.2845 56.149 31.0089 56.6913 30.5378Z" fill="#524A42"/>
<path d="M56.5135 30.4223C57.0112 29.9868 56.8957 29.5246 56.2468 29.3912C55.5979 29.2579 54.6646 29.5068 54.1668 29.9423C53.669 30.3779 53.7846 30.8401 54.4335 30.9734C55.0735 31.1068 56.0068 30.8668 56.5135 30.4223Z" fill="#322920"/>
<path d="M56.5489 30.1023C56.5134 30.209 56.4423 30.3067 56.3178 30.4134C55.9001 30.769 55.1267 30.9823 54.5845 30.8756C54.4156 30.8401 54.2823 30.769 54.2112 30.689C54.0423 30.5201 54.0867 30.2623 54.3623 30.0134C54.7889 29.649 55.5623 29.4445 56.0956 29.5512C56.4778 29.6401 56.6467 29.8534 56.5489 30.1023Z" fill="#313639"/>
<path d="M59.438 28.7868C59.4024 28.8935 59.3224 29.0002 59.198 29.1068C58.7802 29.4624 58.0069 29.6668 57.4647 29.5602C57.2958 29.5246 57.1624 29.4624 57.0913 29.3824C57.1269 29.2757 57.198 29.1779 57.3224 29.0713C57.7402 28.7068 58.5224 28.5024 59.0558 28.6091C59.2335 28.6446 59.358 28.7068 59.438 28.7868Z" fill="#616567"/>
<path d="M56.5491 30.1024C56.5135 30.209 56.4424 30.3068 56.318 30.4135C55.9002 30.769 55.1269 30.9824 54.5846 30.8757C54.4157 30.8401 54.2824 30.769 54.2113 30.689C54.2469 30.5824 54.318 30.4846 54.4424 30.3779C54.8602 30.0135 55.6424 29.809 56.1757 29.9157C56.3446 29.9601 56.4691 30.0224 56.5491 30.1024Z" fill="#616567"/>
<path d="M51.2689 31.9509C51.2512 32.182 51.1534 32.3243 51.0112 32.3776C50.9845 32.3865 50.5578 32.6354 50.5312 32.6443C50.4156 32.6532 50.6467 32.4132 50.5045 32.3243C50.1489 32.0754 49.8912 31.5154 49.9267 31.0798C49.9445 30.902 49.5534 30.9998 49.6423 30.9198C49.6601 30.902 50.1845 30.6176 50.2023 30.6087C50.3356 30.5465 50.5045 30.5732 50.6823 30.6976C51.0467 30.9643 51.3045 31.5154 51.2689 31.9509Z" fill="#322920"/>
<path d="M50.7355 32.2443C50.6999 32.6798 50.371 32.8221 50.0155 32.5732C49.6599 32.3243 49.4022 31.7643 49.4377 31.3287C49.4733 30.8932 49.8022 30.7509 50.1577 30.9998C50.5133 31.2487 50.771 31.8087 50.7355 32.2443Z" fill="#524A42"/>
<path d="M50.3536 32.0576C50.3447 32.1909 50.2824 32.2798 50.2024 32.3065C50.1847 32.3153 47.118 34.022 47.1002 34.0309C47.038 34.0398 47.1624 33.8976 47.0824 33.8442C46.8691 33.6931 46.718 33.3642 46.7447 33.1153C46.7536 33.0087 46.5224 33.0709 46.5758 33.0265C46.5847 33.0176 49.7136 31.2842 49.7313 31.2753C49.8113 31.2398 49.9091 31.2576 50.0158 31.3287C50.2202 31.4709 50.3713 31.7998 50.3536 32.0576Z" fill="#322920"/>
<path d="M47.2158 33.7909C47.1892 34.0487 47.0025 34.1376 46.7892 33.9865C46.5758 33.8354 46.4247 33.5065 46.4514 33.2576C46.4781 32.9998 46.6647 32.9109 46.8781 33.062C47.0825 33.2131 47.2425 33.542 47.2158 33.7909Z" fill="#524A42"/>
<defs>
<linearGradient id="paint0_linear_2641_3102" x1="48" y1="17" x2="48" y2="79.2222" gradientUnits="userSpaceOnUse">
<stop stop-color="#FF0000" stop-opacity="0"/>
<stop offset="1" stop-color="#FF0000"/>
</linearGradient>
<linearGradient id="paint1_linear_2641_3102" x1="47.111" y1="25.8889" x2="47.111" y2="68.5556" gradientUnits="userSpaceOnUse">
<stop stop-color="#FF0000"/>
<stop offset="1" stop-color="#FF0000" stop-opacity="0"/>
</linearGradient>
<linearGradient id="paint2_linear_2641_3102" x1="47.111" y1="25.8889" x2="47.111" y2="68.5556" gradientUnits="userSpaceOnUse">
<stop stop-color="#FF0000"/>
<stop offset="1" stop-color="#FF0000" stop-opacity="0"/>
</linearGradient>
</defs>
</svg>
