<svg width="90" height="64" viewBox="0 0 90 64" fill="none" xmlns="http://www.w3.org/2000/svg">
<path d="M52.467 37V36.8L51.2802 20.8C51.2473 20.3667 51.0659 19.9917 50.7363 19.675C50.4066 19.3583 50.0275 19.2 49.5989 19.2H40.4011C39.9725 19.2 39.5934 19.3583 39.2637 19.675C38.9341 19.9917 38.7527 20.3667 38.7198 20.8L37.533 36.8V37C37.5 37.4 37.6319 37.7333 37.9286 38C38.2253 38.2667 38.5714 38.4 38.967 38.4H51.033C51.4286 38.4 51.7747 38.2667 52.0714 38C52.3681 37.7333 52.5 37.4 52.467 37ZM90 60.35C90 62.7833 89.2418 64 87.7253 64H52.9121C53.3407 64 53.7033 63.8417 54 63.525C54.2967 63.2083 54.4286 62.8333 54.3956 62.4L53.4066 49.6C53.3736 49.1667 53.1923 48.7917 52.8626 48.475C52.533 48.1583 52.1538 48 51.7253 48H38.2747C37.8462 48 37.467 48.1583 37.1374 48.475C36.8077 48.7917 36.6264 49.1667 36.5934 49.6L35.6044 62.4C35.5714 62.8333 35.7033 63.2083 36 63.525C36.2967 63.8417 36.6593 64 37.0879 64H2.27473C0.758242 64 0 62.7833 0 60.35C0 58.55 0.428571 56.6167 1.28571 54.55L21.9066 2.35C22.1703 1.71667 22.5989 1.16667 23.1923 0.7C23.7857 0.233333 24.4121 0 25.0714 0H41.8352C41.4066 0 41.0275 0.158333 40.6978 0.475C40.3681 0.791667 40.1868 1.16667 40.1538 1.6L39.4121 11.2C39.3791 11.6667 39.511 12.05 39.8077 12.35C40.1044 12.65 40.467 12.8 40.8956 12.8H49.1044C49.533 12.8 49.8956 12.65 50.1923 12.35C50.489 12.05 50.6209 11.6667 50.5879 11.2L49.8462 1.6C49.8132 1.16667 49.6319 0.791667 49.3022 0.475C48.9725 0.158333 48.5934 0 48.1648 0H64.9286C65.5879 0 66.2143 0.233333 66.8077 0.7C67.4011 1.16667 67.8297 1.71667 68.0934 2.35L88.7143 54.55C89.5714 56.6167 90 58.55 90 60.35Z" fill="url(#paint0_linear_553_21)"/>
<defs>
<linearGradient id="paint0_linear_553_21" x1="45" y1="0" x2="45" y2="64" gradientUnits="userSpaceOnUse">
<stop stop-color="#415E94"/>
<stop offset="1" stop-color="#415E94" stop-opacity="0"/>
</linearGradient>
</defs>
</svg>
