<svg width="133" height="111" viewBox="0 0 133 111" fill="none" xmlns="http://www.w3.org/2000/svg">
<g opacity="0.6" filter="url(#filter0_d)">
<path opacity="0.6" d="M65.7773 77.4143C82.3459 77.4143 95.7773 71.1463 95.7773 63.4143C95.7773 55.6823 82.3459 49.4143 65.7773 49.4143C49.2088 49.4143 35.7773 55.6823 35.7773 63.4143C35.7773 71.1463 49.2088 77.4143 65.7773 77.4143Z" fill="#27AAE1"/>
</g>
<path d="M66.4547 0L75.6126 5.23347L66.4547 10.6255L57.2969 5.23347L66.4547 0Z" fill="#00EAFF"/>
<path d="M66.455 10.6257V58.3612L57.2971 53.1277V5.23364L66.455 10.6257Z" fill="url(#paint0_linear)"/>
<path d="M75.6132 5.23364V53.1277L66.4552 58.3612V10.6257L75.6132 5.23364Z" fill="url(#paint1_linear)"/>
<path d="M63.7707 23.6301V59.9471L54.613 65.1806V29.0222L63.7707 23.6301Z" fill="url(#paint2_linear)"/>
<path d="M54.6128 29.0222V65.1806L45.4551 59.9471V23.6301L54.6128 29.0222Z" fill="url(#paint3_linear)"/>
<path d="M54.6131 18.3965L63.7709 23.63L54.6131 29.0221L45.4553 23.63L54.6131 18.3965Z" fill="#00EAFF"/>
<path d="M78.1395 18.3965L87.4552 23.63L78.1395 29.0221L68.9818 23.63L78.1395 18.3965Z" fill="#00EAFF"/>
<path d="M78.1391 29.0222V65.1806L68.9813 59.9471V23.6301L78.1391 29.0222Z" fill="url(#paint4_linear)"/>
<path d="M87.4548 23.6301V59.9471L78.1393 65.1806V29.0222L87.4548 23.6301Z" fill="url(#paint5_linear)"/>
<path d="M75.6132 49.7974V66.6079L66.4552 71.9999V55.1894L75.6132 49.7974Z" fill="url(#paint6_linear)"/>
<path d="M66.455 55.1894V71.9999L57.2971 66.6079V49.7974L66.455 55.1894Z" fill="url(#paint7_linear)"/>
<path d="M66.4547 44.564L75.6126 49.7974L66.4547 55.1895L57.2969 49.7974L66.4547 44.564Z" fill="#00EAFF"/>
<defs>
<filter id="filter0_d" x="25.7773" y="39.4143" width="80" height="48" filterUnits="userSpaceOnUse" color-interpolation-filters="sRGB">
<feFlood flood-opacity="0" result="BackgroundImageFix"/>
<feColorMatrix in="SourceAlpha" type="matrix" values="0 0 0 0 0 0 0 0 0 0 0 0 0 0 0 0 0 0 127 0"/>
<feOffset/>
<feGaussianBlur stdDeviation="5"/>
<feColorMatrix type="matrix" values="0 0 0 0 0 0 0 0 0 0 0 0 0 0 0 0 0 0 1 0"/>
<feBlend mode="normal" in2="BackgroundImageFix" result="effect1_dropShadow"/>
<feBlend mode="normal" in="SourceGraphic" in2="effect1_dropShadow" result="shape"/>
</filter>
<linearGradient id="paint0_linear" x1="61.8274" y1="63.757" x2="61.8274" y2="1.13188" gradientUnits="userSpaceOnUse">
<stop stop-color="#00EAFF"/>
<stop offset="0.3697" stop-color="#00BFFF"/>
<stop offset="0.7871" stop-color="#0094FF"/>
<stop offset="1" stop-color="#0083FF"/>
</linearGradient>
<linearGradient id="paint1_linear" x1="71.01" y1="75.4066" x2="71.01" y2="5.86118" gradientUnits="userSpaceOnUse">
<stop stop-color="#00EAFF"/>
<stop offset="0.1721" stop-color="#00CAFF"/>
<stop offset="0.5686" stop-color="#0084FF"/>
<stop offset="0.8549" stop-color="#0059FF"/>
<stop offset="1" stop-color="#0048FF"/>
</linearGradient>
<linearGradient id="paint2_linear" x1="59.2287" y1="78.4851" x2="59.2287" y2="24.1362" gradientUnits="userSpaceOnUse">
<stop stop-color="#00EAFF"/>
<stop offset="0.1721" stop-color="#00CAFF"/>
<stop offset="0.5686" stop-color="#0084FF"/>
<stop offset="0.8549" stop-color="#0059FF"/>
<stop offset="1" stop-color="#0048FF"/>
</linearGradient>
<linearGradient id="paint3_linear" x1="50.0462" y1="69.3813" x2="50.0462" y2="20.4401" gradientUnits="userSpaceOnUse">
<stop stop-color="#00EAFF"/>
<stop offset="0.3697" stop-color="#00BFFF"/>
<stop offset="0.7871" stop-color="#0094FF"/>
<stop offset="1" stop-color="#0083FF"/>
</linearGradient>
<linearGradient id="paint4_linear" x1="73.6083" y1="69.3813" x2="73.6083" y2="20.4401" gradientUnits="userSpaceOnUse">
<stop stop-color="#00EAFF"/>
<stop offset="0.3697" stop-color="#00BFFF"/>
<stop offset="0.7871" stop-color="#0094FF"/>
<stop offset="1" stop-color="#0083FF"/>
</linearGradient>
<linearGradient id="paint5_linear" x1="82.7907" y1="78.4851" x2="82.7907" y2="24.1362" gradientUnits="userSpaceOnUse">
<stop stop-color="#00EAFF"/>
<stop offset="0.1721" stop-color="#00CAFF"/>
<stop offset="0.5686" stop-color="#0084FF"/>
<stop offset="0.8549" stop-color="#0059FF"/>
<stop offset="1" stop-color="#0048FF"/>
</linearGradient>
<linearGradient id="paint6_linear" x1="71.01" y1="79.086" x2="71.01" y2="50.0638" gradientUnits="userSpaceOnUse">
<stop stop-color="#00EAFF"/>
<stop offset="0.1721" stop-color="#00CAFF"/>
<stop offset="0.5686" stop-color="#0084FF"/>
<stop offset="0.8549" stop-color="#0059FF"/>
<stop offset="1" stop-color="#0048FF"/>
</linearGradient>
<linearGradient id="paint7_linear" x1="61.8274" y1="74.2245" x2="61.8274" y2="48.0901" gradientUnits="userSpaceOnUse">
<stop stop-color="#00EAFF"/>
<stop offset="0.3697" stop-color="#00BFFF"/>
<stop offset="0.7871" stop-color="#0094FF"/>
<stop offset="1" stop-color="#0083FF"/>
</linearGradient>
</defs>
</svg>
