<svg width="784" height="391" viewBox="0 0 784 391" fill="none" xmlns="http://www.w3.org/2000/svg">
<path d="M1 30H234.5L261 3H503.5L513.5 13H784V391H1V30Z" fill="url(#paint0_linear_479_22)" fill-opacity="0.2"/>
<path d="M1 27.5H233L259.3 1.4L259.7 1H260.2H504.7H505.2L505.5 1.4L514.4 10.5H784V12.9H513.9H513.3L513 12.6L504.1 3.5H260.7L234.4 29.6L234 29.9H233.5H1V27.5Z" fill="#2D9CDB"/>
<path fill-rule="evenodd" clip-rule="evenodd" d="M232.1 23.6L255.5 1H242.8L219.4 23.6H232.1ZM13.6 23.6L37.1 1H24.4L1 23.6H13.6ZM30.5 23.6L53.9 1H41.2L17.8 23.6H30.5ZM47.2 23.6L70.7 1H58L34.6 23.6H47.2ZM64 23.6L87.5 1H74.8L51.4 23.6H64ZM80.9 23.6L104.3 1H91.6L68.2 23.6H80.9ZM97.6 23.6L121 1H108.3L85 23.6H97.6ZM114.4 23.6L137.8 1H125.1L101.7 23.6H114.4ZM131.3 23.6L154.7 1H142L118.5 23.6H131.3V23.6ZM148 23.6L171.4 1H158.7L135.3 23.6H148ZM164.8 23.6L188.2 1H175.5L152.1 23.6H164.8ZM181.7 23.6L205.1 1H192.4L169 23.6H181.7ZM198.4 23.6L221.8 1H209.1L185.7 23.6H198.4ZM215.2 23.6L238.7 1H226L202.6 23.6H215.2V23.6Z" fill="#2D9CDB" stroke="black" stroke-width="0.2268" stroke-miterlimit="10"/>
<defs>
<linearGradient id="paint0_linear_479_22" x1="392.5" y1="30" x2="392.5" y2="391" gradientUnits="userSpaceOnUse">
<stop stop-color="#2D9CDB"/>
<stop offset="1" stop-color="#2D9CDB" stop-opacity="0"/>
</linearGradient>
</defs>
</svg>
