<svg width="128" height="128" viewBox="0 0 128 128" fill="none" xmlns="http://www.w3.org/2000/svg">
<path d="M33.2143 94.8746C25.465 87.0055 20.6719 76.2093 20.6719 64.289C20.6719 40.3 40.1189 20.7651 64.0001 20.7651C87.8814 20.7651 107.35 40.3 107.35 64.289C107.35 76.2093 102.556 87.0055 94.8071 94.8746L103.338 103.338C113.22 93.305 119.322 79.5182 119.322 64.289C119.322 33.6187 94.5538 8.73877 64.0213 8.73877C33.4888 8.73877 8.69958 33.6187 8.69958 64.289C8.69958 79.5182 14.8019 93.305 24.6837 103.338L33.2143 94.8746Z" fill="#FF0000"/>
<path d="M18.9403 109.064C7.60145 97.547 0.591224 81.7452 0.591224 64.3102C0.591224 29.1856 29.0333 0.615104 64 0.615104C98.9667 0.615104 127.409 29.1856 127.409 64.3102C127.409 81.7452 120.399 97.547 109.06 109.064L109.482 109.489C120.926 97.8652 128 81.9149 128 64.3102C128.021 28.8463 99.3045 0 64 0C28.7166 0 0 28.8463 0 64.289C0 81.8937 7.07357 97.844 18.518 109.467L18.9403 109.064Z" fill="white" fill-opacity="0.2"/>
<path d="M64.0001 98.247C82.6703 98.247 97.8054 83.0435 97.8054 64.289C97.8054 45.5346 82.6703 30.3311 64.0001 30.3311C45.3299 30.3311 30.1947 45.5346 30.1947 64.289C30.1947 83.0435 45.3299 98.247 64.0001 98.247Z" fill="#801B09"/>
</svg>
